<svg xmlns="http://www.w3.org/2000/svg" width="134" height="40" fill="none"><rect width="133.333" height="40" fill="#252525" rx="4"/><path fill="#fff" fill-rule="evenodd" d="M47.218 26.817l1.306 3.8h1.682l-4.16-12.084h-1.904L40 30.617h1.629l1.266-3.8h4.323zm-3.998-1.22l1.195-3.496c.235-.735.434-1.47.614-2.19h.037c.18.697.361 1.415.633 2.205l1.193 3.478H43.22v.003zm8.517 8.57h1.574v-4.712h.036a3.077 3.077 0 0 0 2.696 1.363c2.061 0 3.98-1.542 3.98-4.662 0-2.634-1.593-4.41-3.709-4.41a3.447 3.447 0 0 0-3.114 1.686h-.037l-.072-1.493h-1.43c.036.824.073 1.721.073 2.832v9.395h.003zm1.574-8.57c.008-.219.045-.436.108-.645a2.535 2.535 0 0 1 2.407-1.955c1.682 0 2.604 1.494 2.604 3.227 0 1.991-.977 3.352-2.658 3.352a2.451 2.451 0 0 1-2.389-1.845 3.517 3.517 0 0 1-.072-.646v-1.493.005zm9.15 8.57h1.574v-4.712h.04a3.077 3.077 0 0 0 2.695 1.363c2.062 0 3.98-1.542 3.98-4.662 0-2.634-1.592-4.41-3.708-4.41a3.447 3.447 0 0 0-3.114 1.686h-.037l-.072-1.493h-1.43c.036.824.073 1.721.073 2.832v9.395h-.001zm1.574-8.57c.008-.219.045-.436.109-.645a2.535 2.535 0 0 1 2.405-1.955c1.683 0 2.605 1.494 2.605 3.227 0 1.991-.977 3.352-2.66 3.352a2.451 2.451 0 0 1-2.387-1.845 3.517 3.517 0 0 1-.072-.646v-1.493.005zm11.989 4.428c.953.52 2.026.785 3.114.771 2.876 0 4.27-1.614 4.27-3.478 0-1.775-1.05-2.76-3.115-3.55-1.683-.645-2.425-1.201-2.425-2.33 0-.825.633-1.811 2.298-1.811.807-.002 1.6.195 2.311.574l.435-1.273a5.586 5.586 0 0 0-2.696-.592c-2.37 0-3.943 1.394-3.943 3.286 0 1.703 1.23 2.725 3.215 3.424 1.646.628 2.297 1.273 2.297 2.403 0 1.218-.94 2.06-2.55 2.06a5.613 5.613 0 0 1-2.822-.788l-.39 1.304zm9.928-10.165v2.08h-1.357v1.2h1.357v4.734c-.088.803.131 1.61.615 2.26.448.458 1.075.7 1.718.662a3.93 3.93 0 0 0 1.412-.215l-.073-1.184a3.57 3.57 0 0 1-.922.108c-.887 0-1.195-.61-1.195-1.685v-4.68h2.28v-1.2h-2.28v-2.49l-1.555.41zm8.99 1.883c-2.423 0-4.341 1.703-4.341 4.607a4.103 4.103 0 0 0 1.103 3.15 4.181 4.181 0 0 0 3.093 1.314 4.3 4.3 0 0 0 3.219-1.339 4.218 4.218 0 0 0 1.142-3.269c0-2.652-1.701-4.463-4.216-4.463zm-.036 1.182c1.882 0 2.623 1.865 2.623 3.335 0 1.954-1.14 3.37-2.66 3.37-1.555 0-2.658-1.433-2.658-3.334 0-1.649.814-3.37 2.695-3.37zm6.256 7.692h1.574v-4.626a4.42 4.42 0 0 1 .073-.735 2.224 2.224 0 0 1 2.134-2.026c.182-.003.365.015.543.054v-1.488a1.745 1.745 0 0 0-.453-.053 2.621 2.621 0 0 0-2.423 1.9h-.073l-.054-1.703h-1.393c.054.806.072 1.685.072 2.707v5.974-.004zm12.95-4.052a5.83 5.83 0 0 0 .055-.735c0-1.593-.76-4.082-3.617-4.082-2.551 0-4.106 2.062-4.106 4.68a4.008 4.008 0 0 0 1.139 3.166 4.086 4.086 0 0 0 3.166 1.208 7.145 7.145 0 0 0 2.913-.537l-.271-1.13a5.802 5.802 0 0 1-2.424.447 2.82 2.82 0 0 1-2.204-.818 2.765 2.765 0 0 1-.799-2.193h6.144l.004-.006zm-6.128-1.13a2.627 2.627 0 0 1 2.442-2.563c.651.01 1.267.296 1.69.787.423.49.613 1.138.521 1.777h-4.657.004z" clip-rule="evenodd"/><path fill="#fff" d="M47.218 26.817l.189-.066-.047-.135h-.142v.2zm1.306 3.8l-.19.065.047.135h.143v-.2zm1.682 0v.2h.28l-.091-.265-.19.065zm-4.16-12.084l.188-.065-.046-.134h-.143v.2zm-1.904 0v-.2H44l-.046.136.19.064zM40 30.617l-.19-.065-.09.265H40v-.2zm1.629 0v.2h.144l.045-.137-.19-.063zm1.266-3.8v-.2h-.145l-.045.136.19.064zm.325-1.22h-.2l.39.064-.19-.064zm1.195-3.496l.189.065.001-.004-.19-.061zm.614-2.19v-.2h-.156l-.037.15.193.05zm.037 0l.193-.05-.039-.15h-.154v.2zm.633 2.205l.189-.065-.19.065zm1.193 3.478v.2h.28l-.09-.265-.19.065zm-3.672 0v-.2h-.2v.2h.2zm8.517 8.573l-.063.19.03.01h.033v-.2zm1.574 0v.2h.2v-.2h-.2zm0-4.712v-.2h-.2v.2h.2zm.036 0l.167-.11-.06-.09h-.107v.2zm2.696 1.363v-.2h-.009l.009.2zm.271-9.071l-.008.2h.008v-.2zM53.2 23.432v.2h.114l.058-.098-.172-.102zm-.037 0l-.2.01.01.19h.19v-.2zm-.072-1.493l.2-.01-.01-.19h-.19v.2zm-1.43 0v-.2h-.209l.01.209.2-.01zm.073 12.227h-.2v.144l.137.045.063-.19zm1.577-8.57h-.2l.4.008-.2-.007zm.108-.644l.192.058.003-.013-.194-.045zm2.407-1.955v-.2h-.006l.006.2zm-.054 6.58v-.2.2zm-2.389-1.846l-.196.04.002.008.194-.048zm-.072-.646h-.2v.004l.2-.004zm9.15 7.082l-.141-.142-.345.342h.486v-.2zm1.574 0v.2h.2v-.2h-.2zm0-4.712v-.2h-.2v.2h.2zm.04 0l.167-.11-.06-.09h-.107v.2zm2.695 1.363v-.2h-.009l.009.2zm.272-9.071l-.008.2h.008v-.2zm-3.114 1.685v.2h.114l.058-.098-.172-.102zm-.037 0l-.2.01.01.19h.19v-.2zm-.072-1.493l.2-.01-.01-.19h-.19v.2zm-1.43 0v-.2h-.209l.01.209.2-.01zm.073 12.227l.14.142.06-.059v-.083h-.2zm1.573-8.57h-.2l.4.008-.2-.007zm.109-.644l.191.058.003-.013-.194-.045zm2.405-1.955v-.2h-.006l.006.2zm-.055 6.58v-.2.2zm-2.387-1.846l-.196.04.002.008.194-.048zm-.072-.646h-.2v.004l.2-.004zm11.989 2.94l-.192-.058-.046.156.142.077.096-.175zm3.114.771v-.2h-.002l.002.2zm1.155-7.027l-.072.187.072-.187zm-.127-4.142v.2-.2zm2.311.574l-.094.177.207.11.076-.222-.189-.065zm.435-1.273l.19.064.056-.165-.156-.078-.09.179zm-2.696-.592v.2h.007l-.007-.2zm-.728 6.71l.071-.187-.004-.001-.067.188zm-.253 4.464l-.002.2h.002v-.2zm-2.822-.789l.102-.172-.22-.13-.074.245.192.057zm9.54-8.861l-.052-.194-.149.04v.154h.2zm0 2.08v.2h.2v-.2h-.2zm-1.358 0v-.2h-.2v.2h.2zm0 1.2h-.2v.2h.2v-.2zm1.357 0h.2v-.2h-.2v.2zm0 4.734l.199.022.001-.011v-.011h-.2zm.615 2.26l-.16.119.008.01.009.01.143-.14zm1.718.662l.006-.2h-.018l.012.2zm1.412-.215l.065.19.144-.05-.01-.152-.2.012zm-.073-1.184l.2-.012-.015-.24-.233.058.048.194zm-.922.108l.003-.2h-.003v.2zm-1.195-6.364v-.2h-.2v.2h.2zm2.28 0v.2h.2v-.2h-.2zm0-1.201h.2v-.2h-.2v.2zm-2.28 0h-.2v.2h.2v-.2zm0-2.49h.2v-.259l-.25.066.05.194zm3.094 6.9l.2.016v-.016h-.2zm4.196 4.464l.005-.2h-.007l.002.2zm4.36-4.608h-.2v.009l.002.009.199-.018zm-6.946.09h.2-.2zm8.951 4.321v-.2h-.2v.2h.2zm1.574 0v.2h.2v-.2h-.2zm0-4.626l-.2-.003v.003h.2zm.073-.735l.196.037.002-.01.001-.01-.199-.017zm2.134-2.026l-.003-.2h-.005l.008.2zm.543.054l-.042.195.242.052v-.247h-.2zm0-1.488h.2v-.155l-.15-.038-.05.193zm-.453-.053l-.003-.2h-.005l.008.2zm-2.423 1.9v.2h.151l.041-.145-.192-.055zm-.073 0l-.199.007.006.193h.193v-.2zm-.054-1.703l.2-.007-.006-.193h-.194v.2zm-1.393 0v-.2h-.214l.014.213.2-.013zm13.022 4.625l.166.111.026-.038.007-.046-.199-.027zm.055-.735l.2.002v-.002h-.2zm-7.723.597l.199.018.001-.009v-.009h-.2zm4.305 4.375l.005-.2h-.018l.013.2zm2.913-.537l.077.184.158-.065-.04-.166-.195.047zm-.271-1.13l.195-.047-.055-.229-.217.091.077.184zm-2.424.447l.006-.2h-.01l-.011.001.015.2zm-3.003-3.011v-.2h-.184l-.015.182.199.018zm6.144 0v.2h.107l.059-.089-.166-.111zm-6.124-1.136v.2h.196l.004-.196-.2-.003zm2.442-2.563l.003-.2h-.018l.015.2zm2.211 2.564v.2h.173l.024-.172-.197-.028zM47.029 26.88l1.306 3.801.378-.13-1.306-3.8-.378.13zm1.495 3.936h1.682v-.4h-1.682v.4zm1.87-.265l-4.16-12.084-.378.13 4.16 12.084.379-.13zm-4.349-12.218h-1.903v.4h1.903v-.4zm-2.092.135l-4.142 12.083.378.13 4.142-12.084-.378-.13zM40 30.817h1.629v-.4H40v.4zm1.818-.137l1.266-3.8-.38-.127-1.265 3.8.38.127zm1.077-3.663h4.32v-.4h-4.32v.4zm4.32 0h.003v-.4h-.003v.4zm-3.806-1.355l1.195-3.496-.379-.13-1.194 3.496.378.13zm1.196-3.5c.237-.74.437-1.48.618-2.203l-.387-.097a35.47 35.47 0 0 1-.612 2.178l.381.122zm.424-2.052h.037v-.4h-.037v.4zm-.157-.15c.18.696.363 1.423.637 2.22l.379-.129c-.269-.78-.447-1.492-.629-2.19l-.387.1zm.637 2.22l1.194 3.479.378-.13-1.193-3.478-.379.13zm1.383 3.214H43.22v.4h3.672v-.4zm-3.872.2v.003h.4v-.003h-.4zm8.717 8.773h1.574v-.4h-1.574v.4zm1.774-.2v-4.712h-.4v4.712h.4zm-.2-4.512h.036v-.4h-.036v.4zm-.13-.09a3.277 3.277 0 0 0 2.87 1.453l-.017-.4a2.877 2.877 0 0 1-2.52-1.274l-.333.222zm2.862 1.453c1.081 0 2.13-.405 2.908-1.223.778-.82 1.271-2.037 1.271-3.639h-.4c0 1.518-.465 2.631-1.161 3.363-.697.733-1.638 1.1-2.618 1.1v.4zm4.18-4.862c0-2.714-1.655-4.61-3.909-4.61v.4c1.978 0 3.508 1.656 3.508 4.21h.4zm-3.9-4.61a3.647 3.647 0 0 0-3.296 1.785l.345.203a3.247 3.247 0 0 1 2.934-1.588l.016-.4zM53.2 23.233h-.037v.4h.037v-.4zm.163.19l-.072-1.493-.4.02.073 1.493.4-.02zm-.272-1.683h-1.43v.4h1.43v-.4zm-1.63.209c.037.823.073 1.717.073 2.823h.4c0-1.115-.037-2.016-.073-2.841l-.4.018zm.073 2.823v9.395h.4V24.77h-.4zm.137 9.584l.003.002.125-.38-.003-.001-.125.38zm1.84-8.75c.007-.202.041-.402.1-.595l-.383-.117c-.069.226-.108.46-.117.696l.4.015zm.103-.608a2.335 2.335 0 0 1 2.217-1.8l-.01-.4a2.735 2.735 0 0 0-2.596 2.11l.39.09zm2.212-1.8c.774 0 1.367.34 1.772.883.41.548.632 1.31.632 2.144h.4c0-.9-.239-1.751-.711-2.383a2.53 2.53 0 0 0-2.093-1.044v.4zm2.404 3.027c0 .966-.237 1.756-.657 2.3-.415.54-1.02.852-1.801.852v.4c.9 0 1.624-.367 2.118-1.007.489-.634.74-1.52.74-2.545h-.4zm-2.459 3.152a2.251 2.251 0 0 1-2.194-1.694l-.388.097a2.651 2.651 0 0 0 2.583 1.997v-.4zM53.58 27.69a3.319 3.319 0 0 1-.068-.609l-.4.008c.005.23.03.458.077.682l.391-.081zm-.068-.605v-1.493h-.4v1.493h.4zm-.4-1.493v.005h.4v-.005h-.4zm9.35 8.775h1.574v-.4h-1.574v.4zm1.774-.2v-4.712h-.4v4.712h.4zm-.2-4.512h.04v-.4h-.04v.4zm-.126-.09a3.277 3.277 0 0 0 2.87 1.453l-.018-.4a2.877 2.877 0 0 1-2.52-1.274l-.332.222zm2.86 1.453c1.082 0 2.131-.405 2.91-1.223.778-.82 1.271-2.037 1.271-3.639h-.4c0 1.518-.465 2.631-1.161 3.363-.697.733-1.638 1.1-2.62 1.1v.4zm4.181-4.862c0-2.714-1.654-4.61-3.908-4.61v.4c1.978 0 3.508 1.656 3.508 4.21h.4zm-3.9-4.61a3.647 3.647 0 0 0-3.295 1.785l.345.203a3.247 3.247 0 0 1 2.934-1.588l.016-.4zm-3.122 1.686h-.037v.4h.037v-.4zm.163.19l-.072-1.493-.4.02.073 1.493.4-.02zm-.272-1.683h-1.43v.4h1.43v-.4zm-1.63.209c.037.823.073 1.717.073 2.823h.4c0-1.115-.037-2.016-.073-2.841l-.4.018zm.073 2.823v9.395h.4V24.77h-.4zm.059 9.252l-.001.002.282.284v-.001l-.281-.285zm1.914-8.419a2.34 2.34 0 0 1 .1-.594l-.383-.117c-.069.226-.108.46-.117.696l.4.015zm.103-.607a2.335 2.335 0 0 1 2.216-1.8l-.01-.4a2.735 2.735 0 0 0-2.595 2.11l.39.09zm2.21-1.8c.775 0 1.369.34 1.774.883.41.548.632 1.31.632 2.144h.4c0-.9-.24-1.751-.711-2.383a2.531 2.531 0 0 0-2.094-1.044v.4zm2.406 3.027c0 .966-.237 1.756-.657 2.3-.416.54-1.021.852-1.802.852v.4c.901 0 1.625-.367 2.119-1.007.489-.634.74-1.52.74-2.545h-.4zm-2.46 3.152a2.252 2.252 0 0 1-2.193-1.694l-.388.097a2.651 2.651 0 0 0 2.582 1.997v-.4zm-2.19-1.686a3.319 3.319 0 0 1-.069-.609l-.4.008c.005.23.03.458.076.682l.392-.081zm-.069-.605v-1.493h-.4v1.493h.4zm-.4-1.493v.005h.4v-.005h-.4zM75.928 30.2c.984.537 2.09.81 3.213.796l-.005-.4a6.134 6.134 0 0 1-3.016-.747l-.192.351zm3.21.796c1.475 0 2.594-.414 3.347-1.091.754-.678 1.122-1.603 1.122-2.587h-.4c0 .88-.328 1.694-.99 2.29-.662.596-1.678.988-3.079.988v.4zm4.47-3.678c0-.932-.279-1.672-.836-2.28-.552-.6-1.364-1.057-2.408-1.456l-.143.374c1.021.39 1.766.82 2.256 1.353.483.526.73 1.166.73 2.01h.4zm-3.243-3.736c-.84-.322-1.415-.612-1.78-.945-.353-.322-.516-.689-.516-1.2h-.4c0 .62.207 1.095.646 1.495.425.388 1.062.7 1.906 1.024l.144-.374zm-2.296-2.144c0-.362.139-.761.462-1.07.322-.307.843-.541 1.635-.541v-.4c-.873 0-1.5.26-1.911.651a1.88 1.88 0 0 0-.587 1.36h.4zm2.098-1.611a4.683 4.683 0 0 1 2.216.55l.188-.352a5.082 5.082 0 0 0-2.405-.598v.4zm2.5.439l.434-1.273-.378-.13-.435 1.274.378.129zm.335-1.517a5.785 5.785 0 0 0-2.792-.612l.013.4a5.386 5.386 0 0 1 2.6.57l.179-.358zm-2.786-.613c-1.223 0-2.257.36-2.99.981a3.22 3.22 0 0 0-1.153 2.505h.4c0-.887.367-1.652 1.012-2.2.648-.549 1.585-.886 2.731-.886v-.4zm-4.143 3.486c0 .907.33 1.638.922 2.23.585.586 1.42 1.029 2.427 1.383l.133-.377c-.98-.345-1.752-.763-2.278-1.289a2.634 2.634 0 0 1-.804-1.947h-.4zm3.344 3.611c.815.31 1.355.616 1.693.965.328.34.475.731.475 1.25h.4c0-.61-.179-1.105-.588-1.528-.4-.413-1.007-.744-1.838-1.06l-.142.373zm2.168 2.216c0 .554-.212 1.011-.6 1.334-.39.325-.979.527-1.75.527v.4c.838 0 1.525-.22 2.006-.62.485-.403.744-.977.744-1.641h-.4zm-2.348 1.86c-.96-.008-1.9-.27-2.722-.76l-.205.344a5.814 5.814 0 0 0 2.923.817l.004-.4zm-3.016-.645l-.389 1.303.384.115.388-1.304-.383-.114zm9.531-8.804v2.08h.4v-2.08h-.4zm.2 1.88h-1.357v.4h1.357v-.4zm-1.557.2v1.2h.4v-1.2h-.4zm.2 1.4h1.357v-.4h-1.357v.4zm1.157-.2v4.734h.4V23.14h-.4zm.001 4.712c-.094.853.14 1.71.654 2.4l.32-.238a2.997 2.997 0 0 1-.576-2.118l-.398-.044zm.671 2.42c.488.501 1.172.765 1.873.724l-.024-.4a2.021 2.021 0 0 1-1.563-.603l-.286.28zm1.855.724a4.128 4.128 0 0 0 1.483-.226l-.13-.378c-.431.15-.885.219-1.34.204l-.013.4zm1.617-.427l-.072-1.184-.4.024.073 1.184.4-.024zm-.32-1.366a3.374 3.374 0 0 1-.871.102l-.006.4c.328.005.656-.034.974-.114l-.097-.388zm-.874.102c-.391 0-.62-.13-.763-.349-.155-.237-.232-.61-.232-1.136h-.4c0 .549.077 1.019.298 1.355.232.355.6.53 1.097.53v-.4zm-.995-1.485v-4.68h-.4v4.68h.4zm-.2-4.48h2.28v-.4h-2.28v.4zm2.48-.2v-1.2h-.4v1.2h.4zm-.2-1.4h-2.28v.4h2.28v-.4zm-2.08.2v-2.49h-.4v2.49h.4zm-.25-2.683l-1.556.41.102.386 1.555-.409-.102-.387zm7.485 2.286c-1.26 0-2.397.443-3.221 1.274-.825.83-1.32 2.035-1.32 3.533h.4c0-1.407.463-2.505 1.204-3.252.74-.747 1.773-1.155 2.937-1.155v-.4zm-4.54 4.79a4.304 4.304 0 0 0 1.156 3.305l.291-.274a3.904 3.904 0 0 1-1.049-2.998l-.398-.033zm1.156 3.305a4.381 4.381 0 0 0 3.242 1.376l-.005-.4a3.982 3.982 0 0 1-2.945-1.25l-.292.274zm3.235 1.376a4.5 4.5 0 0 0 3.368-1.401l-.29-.275a4.099 4.099 0 0 1-3.07 1.276l-.008.4zm3.368-1.401a4.418 4.418 0 0 0 1.196-3.424l-.398.035a4.018 4.018 0 0 1-1.088 3.114l.29.275zm1.197-3.407c0-1.37-.44-2.537-1.22-3.363-.78-.828-1.889-1.3-3.196-1.3v.4c1.207 0 2.207.433 2.905 1.174.7.742 1.11 1.806 1.11 3.09h.4zm-4.452-3.08c.862 0 1.46.422 1.85 1.024.394.61.573 1.404.573 2.11h.4c0-.764-.192-1.637-.638-2.327-.451-.697-1.166-1.208-2.185-1.208v.4zm2.423 3.134c0 1.89-1.09 3.17-2.46 3.17v.4c1.672 0 2.86-1.55 2.86-3.57h-.4zm-2.46 3.17c-1.403 0-2.458-1.297-2.458-3.134h-.4c0 1.964 1.151 3.534 2.859 3.534v-.4zm-2.458-3.134c0-.796.197-1.595.607-2.19.404-.587 1.019-.98 1.888-.98v-.4c-1.012 0-1.745.467-2.217 1.153-.468.678-.678 1.563-.678 2.417h.4zm8.751 4.521h1.574v-.4h-1.574v.4zm1.774-.2v-4.626h-.4v4.626h.4zm0-4.623c.004-.235.027-.47.069-.701l-.393-.073c-.047.254-.072.51-.076.768l.4.006zm.072-.72a2.025 2.025 0 0 1 1.943-1.844l-.016-.4a2.425 2.425 0 0 0-2.326 2.21l.399.033zm1.938-1.844a2.22 2.22 0 0 1 .498.05l.084-.392a2.62 2.62 0 0 0-.588-.058l.006.4zm.74-.146v-1.488h-.4v1.488h.4zm-.15-1.681a1.949 1.949 0 0 0-.506-.06l.006.4c.135-.002.27.014.401.047l.099-.387zm-.511-.06a2.822 2.822 0 0 0-2.608 2.046l.385.109a2.422 2.422 0 0 1 2.239-1.756l-.016-.4zm-2.415 1.9h-.073v.4h.073v-.4zm.127.194l-.054-1.704-.4.013.055 1.704.399-.013zm-.254-1.897h-1.393v.4h1.393v-.4zm-1.593.213c.054.8.072 1.674.072 2.694h.4a40.6 40.6 0 0 0-.073-2.72l-.399.026zm.072 2.694v5.974h.4v-5.974h-.4zm.4 5.974v-.004h-.4v.004h.4zm12.949-4.03a6.23 6.23 0 0 0 .056-.759l-.4-.004c-.003.237-.02.474-.053.71l.397.054zm.056-.761c0-.822-.195-1.885-.771-2.75-.583-.875-1.548-1.532-3.046-1.532v.4c1.359 0 2.202.586 2.713 1.354.519.779.704 1.757.704 2.528h.4zm-3.817-4.282c-1.334 0-2.417.54-3.163 1.43-.743.884-1.143 2.102-1.143 3.45h.4c0-1.271.377-2.393 1.049-3.194.67-.797 1.64-1.286 2.857-1.286v-.4zm-4.306 4.862a4.21 4.21 0 0 0 1.196 3.324l.286-.28a3.805 3.805 0 0 1-1.083-3.01l-.399-.034zm1.196 3.324a4.288 4.288 0 0 0 3.321 1.268l-.025-.4a3.884 3.884 0 0 1-3.01-1.148l-.286.28zm3.303 1.268a7.35 7.35 0 0 0 2.996-.553l-.153-.37a6.946 6.946 0 0 1-2.832.523l-.011.4zm3.114-.784l-.271-1.13-.389.093.271 1.13.389-.093zm-.543-1.268c-.74.31-1.538.458-2.341.433l-.012.4a6 6 0 0 0 2.507-.464l-.154-.369zm-2.362.433a2.618 2.618 0 0 1-2.047-.76l-.284.282c.62.622 1.483.942 2.36.877l-.029-.399zm-2.047-.76a2.563 2.563 0 0 1-.742-2.035l-.398-.035c-.077.871.237 1.731.856 2.352l.284-.282zm-.941-1.852h6.144v-.4h-6.144v.4zm6.31-.089l.004-.006-.332-.223-.004.006.332.223zm-6.09-1.243a2.427 2.427 0 0 1 2.257-2.368l-.03-.399a2.827 2.827 0 0 0-2.627 2.76l.4.007zm2.239-2.367c.595.008 1.156.27 1.542.717l.303-.261a2.477 2.477 0 0 0-1.839-.856l-.006.4zm1.542.717c.385.447.557 1.037.474 1.618l.395.057a2.432 2.432 0 0 0-.566-1.936l-.303.261zm.672 1.446h-4.657v.4h4.657v-.4zm-4.657.4h.004v-.4h-.004v.4z"/><path fill="#fff" fill-rule="evenodd" d="M24.643 12.064c2.836 0 4.65 2.71 4.65 2.71a5.593 5.593 0 0 0-2.765 4.702A5.226 5.226 0 0 0 30 24.41s-2.744 6.423-5.824 6.423c-1.733 0-1.849-.988-4.151-.988-2 0-2.674.988-4.197.988-2.906 0-6.661-6.265-6.661-11.365 0-5.293 3.801-7.412 6.184-7.412 2.093 0 2.966 1.216 4.651 1.216 1.419.007 2.535-1.208 4.64-1.208zm-.488-5.397c.417 2.594-1.966 5.802-4.814 5.698-.42-3.299 2.65-5.525 4.812-5.698h.002zM42.5 12.76v-2.344h.646a7.87 7.87 0 0 0 .19-.47c.058-.158.112-.338.163-.539.05-.2.097-.43.14-.69.044-.26.086-.569.124-.925.046-.376.081-.745.107-1.11a40.556 40.556 0 0 0 .09-1.885c.005-.256.01-.467.012-.63h4.49v6.249h.807v2.345h-.894v-1.517h-4.98v1.517H42.5zm2.367-7.765c0 .459-.019.916-.056 1.372-.038.456-.082.915-.134 1.377a20.07 20.07 0 0 1-.11.931c-.036.256-.075.482-.116.68-.04.197-.086.378-.136.543-.05.166-.108.338-.172.518h3.338V4.995h-2.614zm8.723 3.664c0-.286-.033-.548-.098-.788a1.813 1.813 0 0 0-.291-.618 1.384 1.384 0 0 0-.479-.407 1.415 1.415 0 0 0-.658-.147 1.4 1.4 0 0 0-.657.147 1.391 1.391 0 0 0-.476.407c-.13.173-.226.38-.291.618-.065.24-.098.502-.098.788 0 .288.033.554.098.796.065.243.162.45.291.624.13.173.289.309.477.407a1.4 1.4 0 0 0 .656.146c.249 0 .468-.048.658-.146.19-.098.35-.234.479-.407a1.81 1.81 0 0 0 .291-.624 3.08 3.08 0 0 0 .098-.796zm.894 0c0 .423-.055.804-.166 1.143-.11.339-.268.627-.476.864-.207.238-.46.42-.76.547-.3.126-.64.19-1.018.19-.38 0-.718-.064-1.016-.19a2.066 2.066 0 0 1-.758-.547 2.448 2.448 0 0 1-.476-.864 3.688 3.688 0 0 1-.166-1.143c0-.418.055-.795.166-1.132a2.45 2.45 0 0 1 .476-.862c.207-.237.46-.42.758-.546.298-.127.636-.19 1.016-.19.379 0 .718.063 1.018.19.3.127.553.309.76.546.208.238.366.525.476.862.11.337.166.714.166 1.132zm5.097.77a2.921 2.921 0 0 1-.075.41 2.273 2.273 0 0 1-.163.44 2.111 2.111 0 0 1-.274.42 1.8 1.8 0 0 1-.409.36c-.16.104-.349.187-.566.25a2.687 2.687 0 0 1-.743.094 2.25 2.25 0 0 1-.481-.056 1.88 1.88 0 0 1-.494-.185 2.163 2.163 0 0 1-.456-.335 1.982 1.982 0 0 1-.38-.507 2.96 2.96 0 0 1-.26-.706 3.942 3.942 0 0 1-.097-.922c0-.427.062-.81.185-1.153.123-.342.288-.631.493-.869.206-.237.446-.42.72-.549.273-.128.56-.192.862-.192.272 0 .513.029.722.086.209.058.39.135.546.232.156.096.287.207.394.334.107.127.194.26.26.4s.117.281.15.426c.035.144.057.282.066.414h-.836c-.045-.35-.167-.624-.366-.823-.2-.2-.48-.299-.839-.299-.246 0-.46.05-.644.15-.183.099-.335.238-.456.416a1.924 1.924 0 0 0-.273.645c-.06.252-.09.529-.09.83 0 .34.033.634.098.88.065.245.157.447.277.606.12.159.266.276.44.351.173.076.37.113.59.113a1.144 1.144 0 0 0 .816-.33c.11-.107.204-.24.282-.397a1.88 1.88 0 0 0 .166-.534h.835zm2.27-2.571h-1.794v-.77h4.481v.77h-1.793v4.386h-.894V6.858zm3.047-.77h.981l1.385 4.198h.02l1.385-4.198h.981l-1.987 5.363c-.1.27-.193.504-.277.703a4.575 4.575 0 0 1-.248.508c-.081.14-.163.253-.246.34a.989.989 0 0 1-.602.305 2.947 2.947 0 0 1-.42.026 1.517 1.517 0 0 1-.496-.058v-.799c.058.02.134.039.228.058.094.02.193.03.297.03.165 0 .299-.04.4-.119a.745.745 0 0 0 .236-.334l.292-.727-1.93-5.296zm8.844.77h-2.43v4.386h-.894V6.088h4.223v5.156h-.899V6.858zm2.211-.77h.894v2.08h2.43v-2.08h.899v5.156h-.899V8.938h-2.43v2.306h-.894V6.088zm9.17 2.57c0-.285-.032-.547-.097-.787a1.813 1.813 0 0 0-.292-.618 1.384 1.384 0 0 0-.478-.407 1.415 1.415 0 0 0-.659-.147 1.4 1.4 0 0 0-.656.147 1.391 1.391 0 0 0-.476.407c-.13.173-.227.38-.292.618-.064.24-.097.502-.097.788 0 .288.033.554.097.796.065.243.162.45.292.624.13.173.288.309.476.407a1.4 1.4 0 0 0 .656.146c.25 0 .47-.048.659-.146.19-.098.349-.234.478-.407a1.81 1.81 0 0 0 .292-.624 3.08 3.08 0 0 0 .097-.796zm.894 0c0 .424-.055.805-.165 1.144-.11.339-.269.627-.476.864a2.06 2.06 0 0 1-.76.547c-.3.126-.64.19-1.019.19-.379 0-.717-.064-1.015-.19a2.066 2.066 0 0 1-.759-.547 2.446 2.446 0 0 1-.476-.864 3.685 3.685 0 0 1-.165-1.143c0-.418.055-.795.165-1.132.11-.337.27-.624.476-.862.208-.237.46-.42.759-.546.298-.127.636-.19 1.015-.19.38 0 .719.063 1.018.19.3.127.553.309.76.546.208.238.367.525.477.862.11.337.165.714.165 1.132zm3.771-2.57h2.216c.635 0 1.11.117 1.426.351.316.234.474.575.474 1.02 0 .238-.058.439-.175.603-.116.163-.27.308-.461.433.275.103.494.25.656.443.162.192.243.441.243.746 0 .24-.04.457-.122.65a1.253 1.253 0 0 1-.37.491 1.73 1.73 0 0 1-.629.31 3.322 3.322 0 0 1-.9.109h-2.358V6.088zm.894 4.448h1.361c.236 0 .433-.018.59-.055.158-.037.283-.09.377-.161a.582.582 0 0 0 .2-.256.92.92 0 0 0 .058-.337.939.939 0 0 0-.059-.339.564.564 0 0 0-.199-.255 1.032 1.032 0 0 0-.377-.159 2.64 2.64 0 0 0-.59-.055h-1.36v1.617zm0-2.267h1.351c.302 0 .54-.06.715-.178.175-.12.262-.304.262-.554a.77.77 0 0 0-.073-.354.627.627 0 0 0-.194-.229.773.773 0 0 0-.275-.122 1.362 1.362 0 0 0-.313-.037h-1.473V8.27z" clip-rule="evenodd"/></svg>