<svg xmlns="http://www.w3.org/2000/svg" width="17" height="20" fill="none"><path fill-rule="evenodd" d="M4.374 8.333v.87A6.177 6.177 0 0 1 2.87 6.97l-.558-2.174c.805-.898 1.994-1.463 3.363-1.463h.34V2.5C6.016 1.122 7.12 0 8.479 0s2.463 1.122 2.463 2.5v.833h.468c1.479 0 2.761.653 3.563 1.695l-.75 1.581a.857.857 0 0 0-.038.09 6.123 6.123 0 0 1-1.601 2.483v-.849a.828.828 0 0 0-.821-.833.828.828 0 0 0-.821.833v1.95a5.917 5.917 0 0 1-2.463.55 5.969 5.969 0 0 1-2.463-.538V8.333a.828.828 0 0 0-.821-.833.828.828 0 0 0-.821.833zm4.105-6.666a.829.829 0 0 0-.821.833v.833H9.3V2.5a.829.829 0 0 0-.821-.833zm8.479 13.54l-1.137-8.03c-.001-.011-.004-.022-.007-.033a.285.285 0 0 1-.006-.036l-.087.182a7.777 7.777 0 0 1-3.137 3.994v2.05c0 .46-.368.833-.821.833a.828.828 0 0 1-.821-.834v-1.25c-.78.27-1.609.417-2.463.417a7.605 7.605 0 0 1-2.463-.417v1.25c0 .46-.368.834-.821.834a.827.827 0 0 1-.821-.834v-2.049a7.746 7.746 0 0 1-3.05-3.752.765.765 0 0 1-.03-.094l-.042-.165-1.203 7.889a4.237 4.237 0 0 0 .946 3.373A4.105 4.105 0 0 0 4.134 20h8.731c1.2 0 2.34-.527 3.125-1.448a4.235 4.235 0 0 0 .968-3.345z" clip-rule="evenodd"/></svg>