<svg xmlns="http://www.w3.org/2000/svg" width="30" height="30" fill="none"><path fill-rule="evenodd" d="M15.2 4.967a9.996 9.996 0 0 1 6.28 2.37L15 13.817l-2.397-2.398A10.86 10.86 0 0 0 15.2 4.967zM16.183 15l6.48-6.48a10.004 10.004 0 0 1 2.37 6.282 10.85 10.85 0 0 0-6.452 2.595L16.183 15zM13.51 5.079a9.983 9.983 0 0 0-4.988 2.258l2.898 2.899a9.165 9.165 0 0 0 2.09-5.157zm6.255 13.502a9.163 9.163 0 0 1 5.157-2.09 9.974 9.974 0 0 1-2.258 4.988l-2.899-2.898zM7.337 8.52a9.975 9.975 0 0 0-2.258 4.988 9.166 9.166 0 0 0 5.157-2.09L7.337 8.521zm-2.37 6.677a10.849 10.849 0 0 0 6.452-2.595l2.396 2.396-6.479 6.48a9.993 9.993 0 0 1-2.37-6.281zM15 16.183l-6.48 6.48a9.997 9.997 0 0 0 6.28 2.37c.134-2.312 1-4.59 2.597-6.452L15 16.183zm1.491 8.738a9.165 9.165 0 0 1 2.09-5.157l2.898 2.899a9.973 9.973 0 0 1-4.988 2.258z" clip-rule="evenodd"/></svg>