<svg xmlns="http://www.w3.org/2000/svg" width="120" height="120" fill="none"><path fill="url(#paint0_linear)" d="M60 120C26.917 120 0 93.083 0 60S26.917 0 60 0s60 26.917 60 60-26.917 60-60 60z"/><path fill="#fff" d="M46.737 92a4.066 4.066 0 0 1-2.903-1.217L19.203 65.86a4.187 4.187 0 0 1 0-5.874 4.07 4.07 0 0 1 5.805 0l21.729 21.985 42.255-42.754a4.07 4.07 0 0 1 5.805 0 4.187 4.187 0 0 1 0 5.874L49.64 90.783A4.066 4.066 0 0 1 46.737 92z"/><defs><linearGradient id="paint0_linear" x1="81.759" x2="-38.241" y1="-40.378" y2="36.103" gradientUnits="userSpaceOnUse"><stop stop-color="#FF9800"/><stop offset="1" stop-color="#FF5E00"/></linearGradient></defs></svg>