<svg xmlns="http://www.w3.org/2000/svg" width="68" height="75" fill="none"><path fill="url(#paint0_linear)" d="M63.445 75H4.523a4.455 4.455 0 0 1-4.455-4.455V10.258a4.455 4.455 0 0 1 4.455-4.455h58.922a4.455 4.455 0 0 1 4.455 4.455v60.287A4.455 4.455 0 0 1 63.445 75z"/><path fill="url(#paint1_linear)" d="M67.9 10.258a4.455 4.455 0 0 0-4.455-4.455H4.523l-.042.001v9.95l59.237 59.237a4.454 4.454 0 0 0 4.182-4.446V10.258z"/><path fill="#07ADB5" d="M63.445 5.803H4.523a4.455 4.455 0 0 0-4.455 4.455v1.04a4.455 4.455 0 0 0 4.455 4.456h58.922a4.455 4.455 0 0 0 4.455-4.455v-1.041a4.455 4.455 0 0 0-4.455-4.455z"/><path fill="url(#paint2_linear)" d="M24.15 1.712v14.043H4.48V1.712C4.481.768 5.25 0 6.194 0h16.244c.944 0 1.712.768 1.712 1.712z"/><path fill="url(#paint3_linear)" d="M22.437 0H6.194c-.946 0-1.713.767-1.713 1.713v4.596c0 .946.767 1.713 1.713 1.713h16.243c.946 0 1.713-.767 1.713-1.713V1.713C24.15.767 23.383 0 22.437 0z"/><path fill="url(#paint4_linear)" d="M63.487 1.712v14.043H43.818V1.712c0-.944.768-1.712 1.713-1.712h16.244c.944 0 1.712.768 1.712 1.712z"/><path fill="url(#paint5_linear)" d="M61.774 0H45.531c-.946 0-1.713.767-1.713 1.713v4.596c0 .946.767 1.713 1.713 1.713h16.243c.946 0 1.713-.767 1.713-1.713V1.713C63.487.767 62.72 0 61.774 0z"/><path fill="url(#paint6_linear)" d="M43.818 5.462v10.293H24.149V5.462c0-.945.768-1.712 1.713-1.712h16.244c.944 0 1.712.767 1.712 1.712z"/><path fill="url(#paint7_linear)" d="M42.105 3.75H25.862c-.946 0-1.713.766-1.713 1.712v4.597c0 .946.767 1.713 1.713 1.713h16.243c.946 0 1.713-.767 1.713-1.713V5.462c0-.946-.767-1.712-1.713-1.712z"/><path fill="url(#paint8_linear)" d="M13.259 29.73a3.486 3.486 0 1 0 0-6.973 3.486 3.486 0 0 0 0 6.973z"/><path fill="url(#paint9_linear)" d="M54.708 29.73a3.486 3.486 0 1 0 0-6.973 3.486 3.486 0 0 0 0 6.973z"/><path fill="url(#paint10_linear)" d="M67.9 36.378v34.167A4.456 4.456 0 0 1 63.445 75H42.403L18.045 50.642A23.556 23.556 0 0 1 10.79 33.62v-7.036a2.42 2.42 0 0 1 4.449-1.321s25.613 25.573 25.675 25.623c6.693-2.74 11.419-9.324 11.419-16.992v-7.31a2.42 2.42 0 0 1 4.449-1.321L67.9 36.378z"/><path fill="url(#paint11_linear)" d="M34.4 57.084c-13.013.23-23.609-10.448-23.609-23.463v-7.038a2.421 2.421 0 1 1 4.842 0v7.058c0 10.305 8.379 18.784 18.68 18.601 9.968-.176 18.022-8.34 18.022-18.348v-7.311a2.42 2.42 0 1 1 4.842 0v7.311c0 12.65-10.18 22.967-22.777 23.19z"/><path fill="url(#paint12_linear)" d="M67.9 70.545V36.378L56.789 25.27c.246.38.387.83.387 1.313v7.312c0 12.65-10.178 22.968-22.776 23.19-6.323.111-12.076-2.353-16.32-6.409L42.403 75h21.042a4.455 4.455 0 0 0 4.455-4.455z"/><path fill="url(#paint13_linear)" d="M.068 58.2v12.151a4.455 4.455 0 0 0 4.455 4.455h58.922a4.455 4.455 0 0 0 4.455-4.455v-12.15H.068z"/><defs><linearGradient id="paint0_linear" x1="3.117" x2="3.117" y1="13.165" y2="76.145" gradientUnits="userSpaceOnUse"><stop stop-color="#1ACEB8"/><stop offset="1" stop-color="#0BBFBA"/></linearGradient><linearGradient id="paint1_linear" x1="74.103" x2="26.561" y1="5.752" y2="-34.192" gradientUnits="userSpaceOnUse"><stop offset="0" stop-color="#1ACEB8" stop-opacity=".01"/><stop offset="1" stop-color="#04959C"/></linearGradient><linearGradient id="paint2_linear" x1="10.21" x2="10.21" y1="7.773" y2="14.351" gradientUnits="userSpaceOnUse"><stop stop-color="#FFCF95"/><stop offset=".427" stop-color="#FFC954"/><stop offset="1" stop-color="#FFC200"/></linearGradient><linearGradient id="paint3_linear" x1="4.45" x2="4.45" y1="-1.729" y2="6.319" gradientUnits="userSpaceOnUse"><stop stop-color="#FFCF95"/><stop offset=".427" stop-color="#FFC954"/><stop offset="1" stop-color="#FFC200"/></linearGradient><linearGradient id="paint4_linear" x1="49.548" x2="49.548" y1="7.773" y2="14.351" gradientUnits="userSpaceOnUse"><stop stop-color="#C2D600"/><stop offset="1" stop-color="#7BD101"/></linearGradient><linearGradient id="paint5_linear" x1="43.788" x2="43.788" y1="-1.729" y2="6.319" gradientUnits="userSpaceOnUse"><stop stop-color="#C2D600"/><stop offset="1" stop-color="#7BD101"/></linearGradient><linearGradient id="paint6_linear" x1="29.879" x2="29.879" y1="9.672" y2="14.684" gradientUnits="userSpaceOnUse"><stop stop-color="#B761C6"/><stop offset="1" stop-color="#9C44B3"/></linearGradient><linearGradient id="paint7_linear" x1="24.119" x2="24.119" y1="2.02" y2="10.068" gradientUnits="userSpaceOnUse"><stop stop-color="#B761C6"/><stop offset="1" stop-color="#9C44B3"/></linearGradient><linearGradient id="paint8_linear" x1="36.938" x2="16.116" y1="29.098" y2="8.276" gradientUnits="userSpaceOnUse"><stop offset="0" stop-color="#1ACEB8" stop-opacity=".01"/><stop offset="1" stop-color="#04959C"/></linearGradient><linearGradient id="paint9_linear" x1="78.39" x2="57.567" y1="29.099" y2="8.277" gradientUnits="userSpaceOnUse"><stop offset="0" stop-color="#1ACEB8" stop-opacity=".01"/><stop offset="1" stop-color="#04959C"/></linearGradient><linearGradient id="paint10_linear" x1="59.912" x2="36.692" y1="33.621" y2="4.318" gradientUnits="userSpaceOnUse"><stop offset="0" stop-color="#1ACEB8" stop-opacity=".01"/><stop offset="1" stop-color="#04959C"/></linearGradient><linearGradient id="paint11_linear" x1="1.508" x2="1.508" y1="22.948" y2="69.054" gradientUnits="userSpaceOnUse"><stop stop-color="#fff"/><stop offset="1" stop-color="#E8EFEE"/></linearGradient><linearGradient id="paint12_linear" x1="81.804" x2="52.222" y1="52.704" y2="23.015" gradientUnits="userSpaceOnUse"><stop offset="0" stop-color="#1ACEB8" stop-opacity=".01"/><stop offset="1" stop-color="#04959C"/></linearGradient><linearGradient id="paint13_linear" x1="3.035" x2="3.035" y1="61.685" y2="76.839" gradientUnits="userSpaceOnUse"><stop offset="0" stop-color="#1ACEB8" stop-opacity=".01"/><stop offset=".769" stop-color="#04959C"/></linearGradient></defs></svg>