<svg xmlns="http://www.w3.org/2000/svg" width="60" height="58" fill="none"><path fill="#FFD54F" d="M29.937.002a.926.926 0 0 0-.922.93v4.925c0 .513.413.929.922.929.51 0 .922-.416.922-.93V.932a.926.926 0 0 0-.922-.929zM58.067 28.327h-4.892a.926.926 0 0 0-.922.929c0 .513.413.929.922.929h4.892c.51 0 .922-.416.922-.93a.926.926 0 0 0-.922-.928zM6.7 28.327H1.808a.926.926 0 0 0-.922.929c0 .513.413.929.922.929H6.7c.51 0 .922-.416.922-.93a.926.926 0 0 0-.922-.928zM49.175 8.57l-3.458 3.483a.933.933 0 0 0 0 1.314.916.916 0 0 0 1.304 0l3.459-3.483a.933.933 0 0 0 0-1.314.918.918 0 0 0-1.304 0zM10.7 8.57a.918.918 0 0 0-1.305 0 .933.933 0 0 0 0 1.314l3.46 3.483a.916.916 0 0 0 1.303 0 .933.933 0 0 0 0-1.314L10.7 8.57zM25.677 40.756c-.515-1.951-2.577-3.547-4.582-3.547H8.32a3.987 3.987 0 0 0-3.848 2.979L.021 57.045c-.103.39.189.773.59.773H29.39a.614.614 0 0 0 .59-.773l-4.302-16.289z"/><path fill="#F9A825" d="M25.677 40.756c-.515-1.951-2.577-3.547-4.582-3.547h-1.616c.183.32.326.658.418 1.008l3.487 13.204c.515 1.948-.944 3.859-2.946 3.859H.488L.02 57.045c-.103.39.189.773.59.773H29.39a.614.614 0 0 0 .59-.773l-4.302-16.289z"/><path fill="#FFD54F" d="M55.677 40.756c-.515-1.951-2.577-3.547-4.582-3.547H38.32a3.987 3.987 0 0 0-3.848 2.979l-4.452 16.857c-.103.39.189.773.59.773H59.39a.614.614 0 0 0 .59-.773l-4.302-16.289z"/><path fill="#F9A825" d="M55.677 40.756c-.515-1.951-2.577-3.547-4.582-3.547h-1.616c.182.32.326.658.418 1.008l3.487 13.204c.515 1.948-.944 3.859-2.946 3.859h-19.95l-.467 1.765c-.103.39.189.773.59.773H59.39a.614.614 0 0 0 .59-.773l-4.302-16.289z"/><path fill="#FFD54F" d="M40.677 20.146c-.515-1.95-2.577-3.547-4.582-3.547H23.32a3.987 3.987 0 0 0-3.848 2.98l-4.452 16.856c-.103.39.189.774.59.774H44.39a.614.614 0 0 0 .59-.774l-4.302-16.289z"/><path fill="#F9A825" d="M40.677 20.146c-.515-1.95-2.577-3.547-4.582-3.547h-1.616c.182.32.326.659.418 1.009l3.487 13.203c.515 1.949-.944 3.859-2.946 3.859h-19.95l-.467 1.765c-.103.39.189.774.59.774H44.39a.614.614 0 0 0 .59-.774l-4.302-16.289z"/></svg>