<svg xmlns="http://www.w3.org/2000/svg" width="73" height="80" fill="none"><path fill="url(#paint0_linear)" d="M66.92 73.353H5.892a5.89 5.89 0 0 1-5.89-5.89V16.648a5.89 5.89 0 0 1 5.89-5.89H66.92a5.89 5.89 0 0 1 5.89 5.89v50.815a5.89 5.89 0 0 1-5.89 5.89z"/><path fill="url(#paint1_linear)" d="M65.558 71.957H7.254a5.627 5.627 0 0 1-5.627-5.627V17.78a5.627 5.627 0 0 1 5.627-5.626h58.304a5.627 5.627 0 0 1 5.627 5.627V66.33a5.626 5.626 0 0 1-5.627 5.627z"/><path fill="url(#paint2_linear)" d="M68.862 27.195L54.183 1.771A3.54 3.54 0 0 0 49.346.475l-46.28 26.72h65.796z"/><path fill="url(#paint3_linear)" d="M.004 47.658h72.805V28.374a4.407 4.407 0 0 0-4.407-4.406H4.41a4.407 4.407 0 0 0-4.407 4.407v19.283z"/><path fill="url(#paint4_linear)" d="M.004 40.406v27.057a5.89 5.89 0 0 0 5.89 5.89h61.025a5.89 5.89 0 0 0 5.89-5.89V40.406a3.638 3.638 0 0 0-3.638-3.638H3.641a3.637 3.637 0 0 0-3.637 3.638z"/><path fill="url(#paint5_linear)" d="M61.825 26.45v46.903h5.095a5.89 5.89 0 0 0 5.889-5.89v-30.03L61.825 26.45z"/><path fill="url(#paint6_linear)" d="M56.859 79.956L5.752 74.02a6.497 6.497 0 0 1-5.748-6.454V16.21c0 1.103.827 2.032 1.923 2.16l56.43 6.553a6.497 6.497 0 0 1 5.749 6.454v42.126c0 3.885-3.388 6.902-7.247 6.454z"/><path fill="url(#paint7_linear)" d="M56.859 69.697L5.752 63.762a6.497 6.497 0 0 1-5.748-6.454v10.258a6.497 6.497 0 0 0 5.748 6.454l51.107 5.936c3.86.448 7.247-2.569 7.247-6.454V63.244c0 3.885-3.388 6.901-7.247 6.453z"/><path fill="url(#paint8_linear)" d="M4.586 24.213a1.24 1.24 0 0 1-.13-.007l-2.339-.257a1.176 1.176 0 1 1 .257-2.339l2.34.258a1.176 1.176 0 0 1-.128 2.345z"/><path fill="url(#paint9_linear)" fill-rule="evenodd" d="M13.566 25.208a1.177 1.177 0 0 0 .257-2.339l-4.555-.5a1.177 1.177 0 0 0-.257 2.338l4.555.5zm9.239 1.008c-.043 0-.087-.002-.13-.007l-4.555-.5a1.176 1.176 0 1 1 .257-2.34l4.555.502a1.177 1.177 0 0 1-.127 2.345zm8.979.995a1.177 1.177 0 0 0 .257-2.339l-4.555-.5a1.177 1.177 0 0 0-.257 2.338l4.555.5zm9.24 1.008c-.044 0-.087-.002-.13-.007l-4.555-.5a1.176 1.176 0 0 1 .257-2.34l4.554.501a1.176 1.176 0 0 1-.127 2.346zm8.978.995a1.177 1.177 0 0 0 .257-2.339l-4.554-.5a1.176 1.176 0 1 0-.257 2.339l4.554.5zm8.806 2.309c-.29 0-.582-.107-.81-.322-.871-.827-2.081-1.353-3.407-1.483l-.031-.003a1.176 1.176 0 1 1 .252-2.34l.02.003c1.832.179 3.535.93 4.785 2.114a1.177 1.177 0 0 1-.81 2.031zm.468 7.518a1.176 1.176 0 1 0 2.353 0V34.46a1.176 1.176 0 1 0-2.352 0v4.582zm1.177 10.34c-.65 0-1.177-.526-1.177-1.176v-4.582a1.176 1.176 0 1 1 2.353 0v4.582c0 .65-.526 1.177-1.176 1.177zm-1.177 7.988a1.176 1.176 0 1 0 2.353 0v-4.582a1.176 1.176 0 1 0-2.352 0v4.582zm1.177 10.34c-.65 0-1.177-.526-1.177-1.176v-4.582a1.176 1.176 0 1 1 2.353 0v4.582c0 .65-.526 1.177-1.176 1.177zM16.13 71.447a1.177 1.177 0 0 0 .297-2.334l-4.546-.578a1.176 1.176 0 1 0-.297 2.334l4.546.578zm9.24 1.166c-.049 0-.099-.004-.15-.01l-4.545-.578a1.176 1.176 0 1 1 .297-2.334l4.546.578a1.176 1.176 0 0 1-.147 2.344zm30.682 2.21a1.176 1.176 0 0 0 1.566.563c1.787-.842 3.095-2.231 3.682-3.912a1.177 1.177 0 0 0-2.222-.776c-.372 1.064-1.27 1.997-2.463 2.56-.588.276-.84.977-.563 1.565zm-3.559 1.248a1.177 1.177 0 0 0 .297-2.334l-4.545-.578a1.176 1.176 0 1 0-.297 2.334l4.545.578zm-8.94-1.146c-.05 0-.1-.003-.15-.01l-4.546-.578a1.176 1.176 0 1 1 .297-2.334l4.546.578a1.176 1.176 0 0 1-.147 2.344zm-9.241-1.166a1.177 1.177 0 0 0 .297-2.334l-4.546-.578a1.177 1.177 0 0 0-.297 2.334l4.546.578z" clip-rule="evenodd"/><path fill="url(#paint10_linear)" d="M7.177 70.298c-.049 0-.099-.003-.15-.01l-2.334-.296a1.176 1.176 0 1 1 .297-2.335l2.334.297a1.176 1.176 0 0 1-.147 2.344z"/><path fill="#61DB99" d="M50.402 8.76l-7.53 4.098a2.022 2.022 0 0 1-1.932-3.552l7.53-4.097a2.022 2.022 0 0 1 1.932 3.552z"/><path fill="url(#paint11_linear)" d="M64.105 56.847l-7.472-7.472a5.768 5.768 0 1 0-8.148 8.148l15.62 15.62V56.847z"/><path fill="url(#paint12_linear)" d="M52.385 59.041a5.768 5.768 0 1 0 0-11.535 5.768 5.768 0 0 0 0 11.535z"/><path fill="url(#paint13_linear)" d="M52.385 57.254a3.98 3.98 0 1 0 0-7.96 3.98 3.98 0 0 0 0 7.96z"/><path fill="url(#paint14_linear)" d="M50.872 52.585a.824.824 0 1 0 0-1.647.824.824 0 0 0 0 1.647z"/><path fill="url(#paint15_linear)" d="M53.897 52.585a.824.824 0 1 0 0-1.647.824.824 0 0 0 0 1.647z"/><path fill="url(#paint16_linear)" d="M50.872 55.611a.824.824 0 1 0 0-1.647.824.824 0 0 0 0 1.647z"/><path fill="url(#paint17_linear)" d="M53.897 55.611a.824.824 0 1 0 0-1.647.824.824 0 0 0 0 1.647z"/><defs><linearGradient id="paint0_linear" x1="30.348" x2="30.033" y1="6.968" y2="19.434" gradientUnits="userSpaceOnUse"><stop stop-color="#FFB92D"/><stop offset="1" stop-color="#F59500"/></linearGradient><linearGradient id="paint1_linear" x1="34.081" x2="33.223" y1="14.928" y2="24.503" gradientUnits="userSpaceOnUse"><stop stop-color="#FFB92D"/><stop offset="1" stop-color="#F59500"/></linearGradient><linearGradient id="paint2_linear" x1="27.164" x2="27.164" y1="15.708" y2="22.982" gradientUnits="userSpaceOnUse"><stop stop-color="#A7F3CE"/><stop offset="1" stop-color="#61DB99"/></linearGradient><linearGradient id="paint3_linear" x1="5.042" x2="5.042" y1="28.299" y2="48.71" gradientUnits="userSpaceOnUse"><stop stop-color="#FF4C54"/><stop offset="1" stop-color="#BE3F45"/></linearGradient><linearGradient id="paint4_linear" x1="5.04" x2="5.04" y1="43.455" y2="74.978" gradientUnits="userSpaceOnUse"><stop stop-color="#FF4C54"/><stop offset="1" stop-color="#BE3F45"/></linearGradient><linearGradient id="paint5_linear" x1="68.667" x2="63.356" y1="38.562" y2="38.562" gradientUnits="userSpaceOnUse"><stop stop-color="#BE3F45" stop-opacity=".01"/><stop offset="1" stop-color="#BE3F45"/></linearGradient><linearGradient id="paint6_linear" x1="14.904" x2="41.876" y1="57.893" y2="70.457" gradientUnits="userSpaceOnUse"><stop stop-color="#FFB92D"/><stop offset="1" stop-color="#F59500"/></linearGradient><linearGradient id="paint7_linear" x1="19.136" x2="18.996" y1="72.002" y2="80.554" gradientUnits="userSpaceOnUse"><stop stop-color="#BE3F45" stop-opacity=".01"/><stop offset="1" stop-color="#BE3F45"/></linearGradient><linearGradient id="paint8_linear" x1="-45.647" x2="-45.647" y1="21.604" y2="76.193" gradientUnits="userSpaceOnUse"><stop stop-color="#FFF465"/><stop offset="1" stop-color="#FFE600"/></linearGradient><linearGradient id="paint9_linear" x1="7.585" x2="7.585" y1="21.606" y2="76.08" gradientUnits="userSpaceOnUse"><stop stop-color="#FFF465"/><stop offset="1" stop-color="#FFE600"/></linearGradient><linearGradient id="paint10_linear" x1="-42.272" x2="-42.272" y1="21.603" y2="76.19" gradientUnits="userSpaceOnUse"><stop stop-color="#FFF465"/><stop offset="1" stop-color="#FFE600"/></linearGradient><linearGradient id="paint11_linear" x1="65.594" x2="46.126" y1="49.127" y2="40.067" gradientUnits="userSpaceOnUse"><stop stop-color="#BE3F45" stop-opacity=".01"/><stop offset="1" stop-color="#BE3F45"/></linearGradient><linearGradient id="paint12_linear" x1="48.213" x2="48.213" y1="49.654" y2="57.994" gradientUnits="userSpaceOnUse"><stop stop-color="#FF4C54"/><stop offset="1" stop-color="#BE3F45"/></linearGradient><linearGradient id="paint13_linear" x1="55.261" x2="55.261" y1="55.773" y2="50.018" gradientUnits="userSpaceOnUse"><stop stop-color="#FF4C54"/><stop offset="1" stop-color="#BE3F45"/></linearGradient><linearGradient id="paint14_linear" x1="39.428" x2="41.075" y1="18.113" y2="25.386" gradientUnits="userSpaceOnUse"><stop stop-color="#A7F3CE"/><stop offset="1" stop-color="#61DB99"/></linearGradient><linearGradient id="paint15_linear" x1="42.453" x2="44.1" y1="18.113" y2="25.387" gradientUnits="userSpaceOnUse"><stop stop-color="#A7F3CE"/><stop offset="1" stop-color="#61DB99"/></linearGradient><linearGradient id="paint16_linear" x1="38.777" x2="40.424" y1="18.26" y2="25.534" gradientUnits="userSpaceOnUse"><stop stop-color="#A7F3CE"/><stop offset="1" stop-color="#61DB99"/></linearGradient><linearGradient id="paint17_linear" x1="41.801" x2="43.448" y1="18.261" y2="25.534" gradientUnits="userSpaceOnUse"><stop stop-color="#A7F3CE"/><stop offset="1" stop-color="#61DB99"/></linearGradient></defs></svg>