<svg xmlns="http://www.w3.org/2000/svg" width="86" height="80" fill="none"><path fill="url(#paint0_linear)" d="M66.798 79.896H18.536a4.347 4.347 0 0 1-4.261-3.489L5.969 35.184h73.396L71.06 76.407a4.347 4.347 0 0 1-4.261 3.489z"/><path fill="url(#paint1_linear)" d="M60.898 75.17a2.726 2.726 0 0 1-2.7-3.131l3.792-25.264a2.726 2.726 0 1 1 5.392.81l-3.791 25.263a2.727 2.727 0 0 1-2.693 2.322z"/><path fill="url(#paint2_linear)" d="M24.436 75.17c-1.328 0-2.49-.97-2.693-2.322l-3.791-25.263a2.727 2.727 0 0 1 5.392-.81l3.791 25.264a2.726 2.726 0 0 1-2.7 3.131z"/><path fill="url(#paint3_linear)" d="M48.887 75.17a2.727 2.727 0 0 1-2.725-2.866l1.292-25.263a2.727 2.727 0 0 1 5.446.279l-1.293 25.263a2.726 2.726 0 0 1-2.72 2.587z"/><path fill="url(#paint4_linear)" d="M36.447 75.17a2.726 2.726 0 0 1-2.72-2.587l-1.293-25.264a2.726 2.726 0 0 1 5.446-.278l1.292 25.263a2.726 2.726 0 0 1-2.725 2.866z"/><path fill="url(#paint5_linear)" d="M7.257 41.578l38.318 38.317h21.223c2.07 0 3.852-1.459 4.261-3.488l8.306-41.223H5.97l1.288 6.394z"/><path fill="url(#paint6_linear)" d="M78.517 41.545H6.817a6.816 6.816 0 0 1 0-13.631h71.702a6.816 6.816 0 0 1 0 13.631z"/><path fill="url(#paint7_linear)" d="M19.31 40.273a5.543 5.543 0 1 0 .001-11.087 5.543 5.543 0 0 0 0 11.087z"/><path fill="url(#paint8_linear)" d="M19.31 39.455a4.725 4.725 0 1 0 0-9.45 4.725 4.725 0 0 0 0 9.45z"/><path fill="url(#paint9_linear)" d="M25.582 27.914h-6.05l-1.07 2.168-1.773 3.597a2.725 2.725 0 0 0 .605 3.216l4.65 4.65h17.27L25.581 27.914z"/><path fill="url(#paint10_linear)" d="M17.294 36.895l2.532 2.532a4.726 4.726 0 1 0-1.364-9.346l-1.774 3.598a2.727 2.727 0 0 0 .606 3.216z"/><path fill="url(#paint11_linear)" d="M19.132 37.611a2.726 2.726 0 0 1-2.443-3.933L32.497 1.627a2.726 2.726 0 1 1 4.89 2.412L21.58 36.09a2.727 2.727 0 0 1-2.447 1.521z"/><path fill="url(#paint12_linear)" d="M66.023 40.273a5.543 5.543 0 1 0 0-11.087 5.543 5.543 0 0 0 0 11.087z"/><path fill="url(#paint13_linear)" d="M79.38 41.49l-9.53-9.529a4.752 4.752 0 0 0-1.06-1.06l-2.986-2.987h-6.147l2.266 4.465 1.83 3.712c.167.337.395.624.663.855l4.6 4.6h9.501c.293 0 .58-.021.862-.057z"/><path fill="url(#paint14_linear)" d="M66.023 39.455a4.725 4.725 0 1 0 0-9.45 4.725 4.725 0 0 0 0 9.45z"/><path fill="url(#paint15_linear)" d="M70.748 34.73a4.726 4.726 0 0 0-8.824-2.351l1.83 3.712c.167.337.395.624.663.855l2.435 2.435a4.726 4.726 0 0 0 3.896-4.651z"/><path fill="url(#paint16_linear)" d="M66.201 37.611a2.726 2.726 0 0 0 2.443-3.933L52.836 1.627a2.726 2.726 0 1 0-4.89 2.412L63.754 36.09a2.726 2.726 0 0 0 2.447 1.521z"/><path fill="url(#paint17_linear)" d="M73.856 23.057c6.339 0 11.477-5.138 11.477-11.476 0-6.338-5.138-11.477-11.477-11.477-6.338 0-11.476 5.139-11.476 11.477s5.138 11.476 11.476 11.476z"/><path fill="url(#paint18_linear)" d="M84.756 15.181l-7.43-7.527-1.525 3.248-3.746 3.641-2.013-2.291-1.823 1.2 9.108 9.071a11.503 11.503 0 0 0 7.43-7.342z"/><path fill="#fff" d="M72.091 17.285l-5.205-5.206 2.445-2.49 2.875 2.875 5.132-4.81 2.33 2.33-7.577 7.301z"/><defs><linearGradient id="paint0_linear" x1="22.944" x2="22.944" y1="59.007" y2="83.035" gradientUnits="userSpaceOnUse"><stop stop-color="#FF4C54"/><stop offset="1" stop-color="#BE3F45"/></linearGradient><linearGradient id="paint1_linear" x1="58.307" x2="72.427" y1="72.921" y2="76.245" gradientUnits="userSpaceOnUse"><stop stop-color="#FF4C54"/><stop offset="1" stop-color="#BE3F45"/></linearGradient><linearGradient id="paint2_linear" x1="18.061" x2="32.18" y1="72.919" y2="76.243" gradientUnits="userSpaceOnUse"><stop stop-color="#FF4C54"/><stop offset="1" stop-color="#BE3F45"/></linearGradient><linearGradient id="paint3_linear" x1="46.436" x2="56.996" y1="73.546" y2="75.36" gradientUnits="userSpaceOnUse"><stop stop-color="#FF4C54"/><stop offset="1" stop-color="#BE3F45"/></linearGradient><linearGradient id="paint4_linear" x1="32.708" x2="43.269" y1="73.545" y2="75.359" gradientUnits="userSpaceOnUse"><stop stop-color="#FF4C54"/><stop offset="1" stop-color="#BE3F45"/></linearGradient><linearGradient id="paint5_linear" x1="88.875" x2="88.875" y1="72.564" y2="16.266" gradientUnits="userSpaceOnUse"><stop stop-color="#BE3F45" stop-opacity=".01"/><stop offset="1" stop-color="#BE3F45"/></linearGradient><linearGradient id="paint6_linear" x1="2.094" x2="2.094" y1="32.283" y2="45.245" gradientUnits="userSpaceOnUse"><stop stop-color="#FFB92D"/><stop offset="1" stop-color="#F59500"/></linearGradient><linearGradient id="paint7_linear" x1="24.567" x2="16.413" y1="31.834" y2="23.68" gradientUnits="userSpaceOnUse"><stop stop-color="#FFB92D"/><stop offset="1" stop-color="#F59500"/></linearGradient><linearGradient id="paint8_linear" x1="14.829" x2="21.781" y1="37.201" y2="44.152" gradientUnits="userSpaceOnUse"><stop stop-color="#F2F2F2"/><stop offset="1" stop-color="#C3C3C3"/></linearGradient><linearGradient id="paint9_linear" x1="52.518" x2="41.276" y1="33.806" y2="2.339" gradientUnits="userSpaceOnUse"><stop stop-color="#BE3F45" stop-opacity=".01"/><stop offset="1" stop-color="#BE3F45"/></linearGradient><linearGradient id="paint10_linear" x1="30.709" x2="19.63" y1="35.099" y2="27.837" gradientUnits="userSpaceOnUse"><stop stop-color="#C3C3C3" stop-opacity=".01"/><stop offset="1" stop-color="#777"/></linearGradient><linearGradient id="paint11_linear" x1="24.706" x2="29.026" y1="21.473" y2="22.26" gradientUnits="userSpaceOnUse"><stop stop-color="#FFF465"/><stop offset="1" stop-color="#FFE600"/></linearGradient><linearGradient id="paint12_linear" x1="68.919" x2="77.072" y1="39.987" y2="31.834" gradientUnits="userSpaceOnUse"><stop stop-color="#FFB92D"/><stop offset="1" stop-color="#F59500"/></linearGradient><linearGradient id="paint13_linear" x1="90.396" x2="77.23" y1="33.196" y2="5.637" gradientUnits="userSpaceOnUse"><stop stop-color="#BE3F45" stop-opacity=".01"/><stop offset="1" stop-color="#BE3F45"/></linearGradient><linearGradient id="paint14_linear" x1="63.552" x2="56.6" y1="30.249" y2="37.2" gradientUnits="userSpaceOnUse"><stop stop-color="#F2F2F2"/><stop offset="1" stop-color="#C3C3C3"/></linearGradient><linearGradient id="paint15_linear" x1="77.38" x2="67.004" y1="34.828" y2="25.64" gradientUnits="userSpaceOnUse"><stop stop-color="#C3C3C3" stop-opacity=".01"/><stop offset="1" stop-color="#777"/></linearGradient><linearGradient id="paint16_linear" x1="59.324" x2="55.005" y1="14.339" y2="15.127" gradientUnits="userSpaceOnUse"><stop stop-color="#FFE600"/><stop offset="1" stop-color="#FFF465"/></linearGradient><linearGradient id="paint17_linear" x1="59.005" x2="76.558" y1="14.284" y2="31.834" gradientUnits="userSpaceOnUse"><stop stop-color="#0EC0B7"/><stop offset="1" stop-color="#04959C"/></linearGradient><linearGradient id="paint18_linear" x1="88.127" x2="76.632" y1="13.983" y2="1.233" gradientUnits="userSpaceOnUse"><stop stop-color="#61DB99" stop-opacity=".01"/><stop offset="1" stop-color="#009E74"/></linearGradient></defs></svg>