<svg xmlns="http://www.w3.org/2000/svg" width="70" height="71" fill="none"><path fill="#FF9102" d="M33.19 1.882L.047 28.662v4.99h69.904v-4.99L36.81 1.881a2.88 2.88 0 0 0-3.62 0z"/><path fill="url(#paint0_linear)" stroke="#E5EAE9" d="M64.19 61.33H5.81a2.88 2.88 0 0 1-2.881-2.88V3.88A2.88 2.88 0 0 1 5.809 1h58.382a2.88 2.88 0 0 1 2.88 2.88v54.57a2.88 2.88 0 0 1-2.88 2.88z"/><path fill="url(#paint1_linear)" d="M67.071 56.844v1.122a3.365 3.365 0 0 1-3.364 3.364H6.293a3.365 3.365 0 0 1-3.364-3.364v-1.122H67.07z"/><path fill="#C2CECE" d="M16.467 10.122h37.065v2.113H16.467zM16.467 18.572h37.065v2.113H16.467zM16.467 27.213h37.065v2.113H16.467zM16.467 35.856h37.065v2.113H16.467z"/><path fill="url(#paint2_linear)" d="M58.142 29.519a11.762 11.762 0 0 1-7.555-2.733l-.8.14L67.073 44.21V25.433a11.78 11.78 0 0 1-8.93 4.086z"/><path fill="url(#paint3_linear)" d="M69.952 28.725V68.12c0 1.59-1.29 2.881-2.88 2.881H2.928c-1.59 0-2.881-1.29-2.881-2.88V28.724l35.336 27.872 34.568-27.872z"/><path fill="url(#paint4_linear)" d="M69.563 69.56l-32.371-26.1a2.88 2.88 0 0 0-3.616 0L.71 69.956A2.875 2.875 0 0 0 2.929 71H67.07c1.066 0 1.994-.58 2.492-1.44z"/><path fill="url(#paint5_linear)" d="M58.14 30.479c6.524 0 11.811-5.288 11.811-11.811s-5.287-11.81-11.81-11.81c-6.523 0-11.81 5.287-11.81 11.81 0 6.523 5.287 11.81 11.81 11.81z"/><path fill="#fff" d="M55.478 13.937c0-.383.155-.685.464-.906l2.3-2.21a.812.812 0 0 1 .596-.244c.265 0 .505.07.718.21.214.14.321.328.321.564v14.634c0 .236-.118.424-.354.564a1.57 1.57 0 0 1-.818.21c-.324 0-.6-.07-.828-.21-.23-.14-.343-.328-.343-.564V13.694l-.774.973a.676.676 0 0 1-.486.22c-.221 0-.41-.098-.564-.297a1.04 1.04 0 0 1-.232-.653z"/><defs><linearGradient id="paint0_linear" x1="-26.303" x2="36.525" y1="37.161" y2="108.182" gradientUnits="userSpaceOnUse"><stop stop-color="#fff"/><stop offset="1" stop-color="#E8EFEE"/></linearGradient><linearGradient id="paint1_linear" x1="28.622" x2="28.043" y1="53.96" y2="63.498" gradientUnits="userSpaceOnUse"><stop stop-color="#C2CECE" stop-opacity=".01"/><stop offset=".179" stop-color="#AFBCBC" stop-opacity=".179"/><stop offset="1" stop-color="#5B6A6A"/></linearGradient><linearGradient id="paint2_linear" x1="75.019" x2="58.081" y1="26.959" y2="12.608" gradientUnits="userSpaceOnUse"><stop stop-color="#C2CECE" stop-opacity=".01"/><stop offset=".179" stop-color="#AFBCBC" stop-opacity=".179"/><stop offset="1" stop-color="#5B6A6A"/></linearGradient><linearGradient id="paint3_linear" x1="13.549" x2="13.549" y1="42.169" y2="68.115" gradientUnits="userSpaceOnUse"><stop stop-color="#FFC200"/><stop offset=".268" stop-color="#FB0"/><stop offset=".659" stop-color="#FFA801"/><stop offset="1" stop-color="#FF9102"/></linearGradient><linearGradient id="paint4_linear" x1="24.142" x2="24.142" y1="61.974" y2="70.975" gradientUnits="userSpaceOnUse"><stop stop-color="#FFC200"/><stop offset=".268" stop-color="#FB0"/><stop offset=".659" stop-color="#FFA801"/><stop offset="1" stop-color="#FF9102"/></linearGradient><linearGradient id="paint5_linear" x1="41.554" x2="51.347" y1="11.834" y2="35.167" gradientUnits="userSpaceOnUse"><stop stop-color="#FF5E00"/><stop offset=".366" stop-color="#FF5E00"/><stop offset=".899" stop-color="#FF5E00"/><stop offset="1" stop-color="#B72401"/></linearGradient></defs></svg>