<svg xmlns="http://www.w3.org/2000/svg" width="18" height="22" fill="none"><path fill-rule="evenodd" d="M17.65 5.355L12.608.314a.815.815 0 0 0-.75-.308H4.823a.812.812 0 0 0-.562.24.82.82 0 0 0-.233.568V2.99h1.59V1.597h5.57V4.86l1.922 1.91h3.25v9.547h-1.393v1.59h2.188c.208 0 .415-.079.562-.226a.791.791 0 0 0 .233-.556V6.114a.813.813 0 0 0-.3-.76zm-3.978 3.978l-5.04-5.04a.802.802 0 0 0-.64-.314l-.046.003-.064.002H.844a.806.806 0 0 0-.795.808v16.31c0 .439.356.783.795.783h12.332c.44 0 .795-.344.796-.783v-11.01a.795.795 0 0 0-.3-.759zM8.8 6.713l2.455 2.442H8.8V6.713zm-7.16 13.58h10.74v-9.546H8.135a.766.766 0 0 1-.68-.204c-.002-.002-.004-.002-.005-.002-.002 0-.004 0-.006-.002l-.006-.006a.795.795 0 0 1-.229-.698v-4.26H1.64v14.719zM12.778 2.736v2.443h2.455l-2.455-2.443z" clip-rule="evenodd"/></svg>