<svg xmlns="http://www.w3.org/2000/svg" width="20" height="20" fill="none"><path fill-rule="evenodd" d="M0 10C0 4.477 4.477 0 10 0s10 4.477 10 10-4.477 10-10 10S0 15.523 0 10zm11 6v-1.602c1.532-.291 2.45-1.25 2.45-2.68 0-1.328-.741-2.07-2.462-2.432l-1.032-.22c-1.003-.213-1.412-.516-1.412-1.044 0-.653.593-1.068 1.489-1.068.866 0 1.495.451 1.578 1.127h1.685C13.252 6.838 12.35 5.918 11 5.616V4H9v1.619c-1.385.308-2.254 1.244-2.254 2.557 0 1.305.766 2.118 2.326 2.444l1.115.237c1.05.226 1.477.54 1.477 1.086 0 .647-.659 1.098-1.59 1.098-1.009 0-1.709-.445-1.792-1.139H6.55c.054 1.321.979 2.225 2.45 2.501V16h2z" clip-rule="evenodd"/></svg>