<svg xmlns="http://www.w3.org/2000/svg" width="20" height="20" fill="none"><path fill-rule="evenodd" d="M9.617.006a9.88 9.88 0 0 0-.806.061c1.141.646 2.315 1.612 3.446 2.855l2.737-1.581A10.092 10.092 0 0 0 9.617.006zM6.009 1.16c-.394-.04-.738.016-1.015.176-1.107.64-1.32 3.028-.457 6.04l5.919-3.416C8.822 2.27 7.19 1.28 6.009 1.16zm7.534 3.33l3.227-1.86a10.002 10.002 0 0 1 3.003 5.197L16.547 9.69a25.144 25.144 0 0 0-3.004-5.2zM1.987 4.004A10.057 10.057 0 0 0 0 9.991l2.738-1.578c-.512-1.6-.762-3.098-.751-4.409zM5.205 9.3L11.791 5.5a22.191 22.191 0 0 1 3.004 5.198l-6.586 3.798A22.191 22.191 0 0 1 5.205 9.3zM20 10.005l-2.738 1.58c.512 1.6.762 3.099.751 4.41A10.056 10.056 0 0 0 20 10.004zM.227 12.172l3.226-1.862a25.158 25.158 0 0 0 3.004 5.2L3.23 17.37a10 10 0 0 1-3.003-5.198zm15.236.451L9.544 16.04c2.18 2.253 4.355 3.264 5.464 2.624 1.108-.639 1.318-3.027.455-6.04zM5.006 18.657l2.737-1.58c1.13 1.242 2.305 2.208 3.446 2.854-2.15.255-4.32-.205-6.183-1.274z" clip-rule="evenodd"/></svg>