<svg xmlns="http://www.w3.org/2000/svg" width="20" height="20" fill="none"><path fill-rule="evenodd" d="M19.485 17.005l-7.847-7.843L2.47 0h-.716l-.146.372c-.387.98-.552 1.983-.477 2.9.084 1.045.481 1.95 1.148 2.616l7.157 7.153.944-.943 6.617 7.394c.658.658 1.791.697 2.488 0a1.76 1.76 0 0 0 0-2.487zM6.12 11.385L.515 16.985a1.76 1.76 0 0 0 0 2.487c.651.652 1.779.71 2.488 0l5.605-5.602-2.488-2.487zm9.856-4.877l3.18-3.178.83.83-4.148 4.144a2.928 2.928 0 0 1-1.897.853c-.181.01-.36.051-.53.12l-2.694-2.693c.069-.17.11-.348.12-.53a2.925 2.925 0 0 1 .854-1.895L15.838.014l.83.829-3.18 3.178.83.829 3.179-3.178.83.829-3.18 3.178.83.829z" clip-rule="evenodd"/></svg>