<svg xmlns="http://www.w3.org/2000/svg" width="20" height="21" fill="none"><path fill="#757575" d="M5.244 20.637a5.138 5.138 0 0 1-3.66-1.511 5.14 5.14 0 0 1-1.51-3.66c0-1.386.537-2.685 1.51-3.659L12.289 1.104c1.532-1.531 3.911-1.462 5.535.161 1.624 1.624 1.694 4.004.163 5.535L7.93 16.856a2.426 2.426 0 0 1-3.426 0 2.426 2.426 0 0 1 0-3.427l6.811-6.811a.588.588 0 1 1 .832.831l-6.812 6.812a1.248 1.248 0 0 0 0 1.763 1.25 1.25 0 0 0 1.764 0L17.154 5.969c1.057-1.058.987-2.722-.163-3.872s-2.814-1.219-3.87-.162L2.416 12.64a3.97 3.97 0 0 0-1.166 2.827 3.97 3.97 0 0 0 1.166 2.828 3.97 3.97 0 0 0 2.827 1.166 3.97 3.97 0 0 0 2.828-1.166L18.775 7.591a.588.588 0 1 1 .832.831L8.904 19.126a5.14 5.14 0 0 1-3.66 1.51z"/></svg>