<svg xmlns="http://www.w3.org/2000/svg" viewBox="0 0 16 16"><path d="M10.5 1c-.648 0-1.2.422-1.406 1H2v1h7.094c.207.578.758 1 1.406 1 .648 0 1.2-.422 1.406-1H14V2h-2.094c-.207-.578-.758-1-1.406-1zm0 1c.281 0 .5.219.5.5s-.219.5-.5.5a.494.494 0 0 1-.5-.5c0-.281.219-.5.5-.5zm-5 4c-.648 0-1.2.422-1.406 1H2v1h2.094c.207.578.758 1 1.406 1 .648 0 1.2-.422 1.406-1H14V7H6.906C6.7 6.422 6.148 6 5.5 6zm0 1c.281 0 .5.219.5.5s-.219.5-.5.5a.494.494 0 0 1-.5-.5c0-.281.219-.5.5-.5zm5 4c-.648 0-1.2.422-1.406 1H2v1h7.094c.207.578.758 1 1.406 1 .648 0 1.2-.422 1.406-1H14v-1h-2.094c-.207-.578-.758-1-1.406-1zm0 1c.281 0 .5.219.5.5s-.219.5-.5.5a.494.494 0 0 1-.5-.5c0-.281.219-.5.5-.5z"/></svg>