<svg xmlns="http://www.w3.org/2000/svg" width="24" height="24" fill="none"><path fill-rule="evenodd" d="M12 0C5.372 0 0 5.372 0 12s5.372 12 12 12 12-5.372 12-12S18.628 0 12 0zm10.438 12.264l-2.072-.518a.386.386 0 0 1-.23-.162l-.87-1.305a.39.39 0 0 1 0-.43l.949-1.421a.378.378 0 0 1 .148-.131l1.16-.58c.591 1.309.929 2.756.929 4.283 0 .05-.004.099-.007.148-.003.038-.006.077-.007.116zM1.698 10.31a10.41 10.41 0 0 0-.15 1.69c0 4.964 3.482 9.122 8.13 10.183v-1.056c.047-.4-.256-1.32-.868-1.932a2.309 2.309 0 0 1-.68-1.643v-1.549a.775.775 0 0 0-.397-.676 79.255 79.255 0 0 0-2.336-1.25 7.69 7.69 0 0 1-1.701-1.169A6.428 6.428 0 0 1 2.66 11.73c-.26-.382-.617-.907-.963-1.42zm9.524 12.102l-.004-1.182c.121-.9-.457-2.273-1.314-3.13a.782.782 0 0 1-.227-.548v-1.549c0-.845-.458-1.623-1.196-2.03a81.235 81.235 0 0 0-2.388-1.279 6.277 6.277 0 0 1-1.4-.97 4.856 4.856 0 0 1-.753-.866 793.673 793.673 0 0 1-1.713-2.533c1.257-3.332 4.16-5.861 7.72-6.573l2.507 2.506-.727.727a1.163 1.163 0 0 0-.046 1.594l-.277.002c-.302 0-.59.116-.809.329l-.48.466a1.153 1.153 0 0 0-.229 1.353l.194.386a1.549 1.549 0 0 0-1.066-.032l-1.51.502a1.35 1.35 0 0 0-.923 1.283c0 .515.286.979.747 1.21l.536.268a4.08 4.08 0 0 0 1.676.426c.115.111.302.366.42.527.286.39.556.76.92.942l.163.082h3.413c.204 0 .403.082.547.226l.662.663a.71.71 0 0 1 .206.497c0 .39-.159.77-.438 1.048l-.55.548c-.237.24-.408.538-.495.865l-.054.214-.011.042c-.042.164-.084.329-.144.49l-1.296 3.492c-.291.025-.584.045-.882.045-.245-.001-.485-.019-.725-.037l-.054-.004zm4.407-2.956l-.98 2.642a10.471 10.471 0 0 0 7.635-8.278l-2.293-.573a1.934 1.934 0 0 1-1.141-.803l-.87-1.305a1.928 1.928 0 0 1 0-2.148l.948-1.422c.187-.28.443-.506.744-.657l1.112-.556c-1.862-2.887-5.1-4.807-8.783-4.807-.01 0-.021 0-.032.002a.393.393 0 0 1-.031.001l1.611 1.612c.293.292.454.681.454 1.095 0 .413-.162.801-.454 1.094l-.455.455a1.163 1.163 0 0 1-.045 1.594l-.387.387c-.22.22-.512.34-.822.34h-.278l-.163.16.627 1.256c.182.362.162.785-.051 1.13a1.152 1.152 0 0 1-.988.55h-.274c-.28 0-.548-.1-.76-.284l-.45-.39-1.06.354.114.056c.346.173.733.265 1.12.265.684 0 1.135.615 1.532 1.158l.034.046c.083.113.183.25.264.344h2.949c.61 0 1.21.248 1.642.68l.662.662c.419.42.66 1 .66 1.592 0 .799-.326 1.58-.893 2.144l-.445.443c-.146.147-.181.207-.198.27l-.05.196c-.058.234-.119.468-.205.695z" clip-rule="evenodd"/></svg>