<svg xmlns="http://www.w3.org/2000/svg" width="134" height="40" fill="none"><rect width="133.333" height="40" fill="#252525" rx="4"/><path fill="#fff" fill-rule="evenodd" d="M79.458 23.033h-.062c-.421-.487-1.225-.927-2.242-.927-2.136 0-4.088 1.83-4.088 4.176 0 2.332 1.952 4.148 4.088 4.148 1.017 0 1.82-.444 2.242-.946h.062v.597c0 1.592-.87 2.447-2.276 2.447-1.145 0-1.856-.808-2.149-1.487l-1.63.665c.47 1.103 1.714 2.46 3.78 2.46 2.198 0 4.052-1.262 4.052-4.333v-7.474h-1.777v.674zm-31.904.348v1.77h4.328c-.127.988-.465 1.714-.984 2.22-.632.612-1.615 1.291-3.344 1.291-2.663 0-4.748-2.098-4.748-4.697 0-2.6 2.085-4.697 4.748-4.697 1.44 0 2.488.549 3.261 1.26l1.278-1.246c-1.082-1.008-2.52-1.782-4.539-1.782-3.651 0-6.72 2.9-6.72 6.465 0 3.564 3.069 6.465 6.72 6.465 1.974 0 3.457-.631 4.622-1.816 1.195-1.165 1.567-2.804 1.567-4.128 0-.411-.035-.789-.098-1.105h-6.09zm11.11-1.275c-2.36 0-4.28 1.749-4.28 4.162 0 2.394 1.92 4.162 4.28 4.162 2.358 0 4.278-1.768 4.278-4.162 0-2.413-1.92-4.162-4.279-4.162zm5.056 4.162c0-2.413 1.924-4.162 4.279-4.162 2.36 0 4.283 1.749 4.283 4.162 0 2.394-1.923 4.162-4.283 4.162-2.355 0-4.279-1.768-4.279-4.162zm1.875 0c0 1.482 1.112 2.523 2.404 2.523 1.292 0 2.408-1.041 2.408-2.523 0-1.5-1.116-2.523-2.408-2.523-1.292 0-2.404 1.022-2.404 2.523zm-9.34 0c0 1.482 1.115 2.523 2.408 2.523 1.292 0 2.404-1.041 2.404-2.523 0-1.5-1.112-2.523-2.404-2.523-1.293 0-2.408 1.022-2.408 2.523zm33.073-4.162c2.213 0 3.3 1.716 3.651 2.647l.197.473-5.703 2.303c.436.837 1.116 1.262 2.065 1.262.955 0 1.616-.46 2.1-1.151l1.454.945a4.25 4.25 0 0 1-3.554 1.845c-2.422 0-4.23-1.83-4.23-4.162 0-2.476 1.826-4.162 4.02-4.162zm-2.163 4.033a2.309 2.309 0 0 1 2.226-2.427c.745 0 1.377.363 1.587.883l-3.813 1.544zm-2.761 4.038h-1.875V17.944h1.875v12.233zm-9.464-3.895c0 1.453 1.082 2.509 2.374 2.509 1.273 0 2.277-1.056 2.277-2.51 0-1.466-1.004-2.536-2.277-2.536-1.292 0-2.374 1.07-2.374 2.537zm26.817-8.338h-4.484v12.233h1.87v-4.635h2.614c2.077 0 4.113-1.467 4.113-3.8 0-2.331-2.041-3.798-4.113-3.798zm-2.614 5.896h2.663a2.16 2.16 0 0 0 2.193-2.098c0-.965-.797-2.096-2.193-2.096h-2.663v4.194zm14.222-1.758c-1.351 0-2.756.583-3.334 1.873l1.659.679c.358-.679 1.014-.9 1.709-.9.97 0 1.953.57 1.968 1.574v.128c-.338-.19-1.062-.473-1.953-.473-1.787 0-3.608.96-3.608 2.752 0 1.64 1.463 2.695 3.109 2.695 1.258 0 1.952-.554 2.389-1.199h.063v.946h1.806v-4.692c0-2.17-1.659-3.383-3.808-3.383zm-1.69 5.668c0 .74.853 1.036 1.464 1.036 1.083 0 2.082-.803 2.228-1.936-.5-.233-.886-.41-1.709-.41-.92 0-1.983.363-1.983 1.31zm12.078-5.4l-2.149 5.303h-.064l-2.222-5.303h-2.017l3.339 7.41-1.905 4.124h1.954l5.144-11.534h-2.08zm-14.98 7.826h-1.875V17.945h1.875v12.233z" clip-rule="evenodd"/><path fill="url(#paint0_linear)" d="M10.018 7.955c-.293.308-.463.787-.463 1.407v22.115c0 .62.17 1.098.463 1.406l.073.067 12.392-12.387v-.293L10.091 7.883l-.073.072z"/><path fill="url(#paint1_linear)" d="M26.36 24.278l-4.279-4.132v-.292l4.285-4.131.096.053 5.073 2.784c1.448.79 1.448 2.09 0 2.885l-5.073 2.779-.101.054z"/><path fill="url(#paint2_linear)" d="M26.29 24.096L22.067 20 9.602 32.09c.463.472 1.22.53 2.08.057l14.608-8.05z"/><path fill="url(#paint3_linear)" d="M26.29 15.904l-14.608-8.05c-.86-.467-1.617-.41-2.08.062L22.067 20l4.223-4.096z"/><path fill="#fff" fill-rule="evenodd" d="M40 12.76v-2.344h.646a7.87 7.87 0 0 0 .19-.47c.058-.158.112-.338.163-.539.05-.2.097-.43.14-.69.044-.26.086-.569.124-.925.046-.376.081-.745.107-1.11a40.556 40.556 0 0 0 .09-1.885c.005-.256.01-.467.012-.63h4.49v6.249h.807v2.345h-.894v-1.517h-4.98v1.517H40zm2.367-7.765c0 .459-.019.916-.056 1.372-.038.456-.082.915-.134 1.377a20.07 20.07 0 0 1-.11.931c-.036.256-.075.482-.116.68-.04.197-.086.378-.136.543-.05.166-.108.338-.172.518h3.338V4.995h-2.614zm8.723 3.664c0-.286-.033-.548-.098-.788a1.813 1.813 0 0 0-.291-.618 1.384 1.384 0 0 0-.479-.407 1.415 1.415 0 0 0-.658-.147 1.4 1.4 0 0 0-.657.147 1.391 1.391 0 0 0-.476.407c-.13.173-.226.38-.291.618-.065.24-.098.502-.098.788 0 .288.033.554.098.796.065.243.162.45.291.624.13.173.289.309.477.407a1.4 1.4 0 0 0 .656.146c.249 0 .468-.048.658-.146.19-.098.35-.234.479-.407a1.81 1.81 0 0 0 .291-.624 3.08 3.08 0 0 0 .098-.796zm.894 0c0 .423-.055.804-.166 1.143-.11.339-.268.627-.476.864-.207.238-.46.42-.76.547-.3.126-.64.19-1.018.19-.38 0-.718-.064-1.016-.19a2.066 2.066 0 0 1-.758-.547 2.448 2.448 0 0 1-.476-.864 3.688 3.688 0 0 1-.166-1.143c0-.418.055-.795.166-1.132a2.45 2.45 0 0 1 .476-.862c.207-.237.46-.42.758-.546.298-.127.636-.19 1.016-.19.379 0 .718.063 1.018.19.3.127.553.309.76.546.208.238.366.525.476.862.11.337.166.714.166 1.132zm5.097.77a2.921 2.921 0 0 1-.075.41 2.273 2.273 0 0 1-.163.44 2.111 2.111 0 0 1-.274.42 1.8 1.8 0 0 1-.409.36c-.16.104-.349.187-.566.25a2.687 2.687 0 0 1-.743.094 2.25 2.25 0 0 1-.481-.056 1.88 1.88 0 0 1-.494-.185 2.163 2.163 0 0 1-.456-.335 1.982 1.982 0 0 1-.38-.507 2.96 2.96 0 0 1-.26-.706 3.942 3.942 0 0 1-.097-.922c0-.427.062-.81.185-1.153.123-.342.288-.631.493-.869.206-.237.446-.42.72-.549.273-.128.56-.192.862-.192.272 0 .513.029.722.086.209.058.39.135.546.232.156.096.287.207.394.334.107.127.194.26.26.4s.117.281.15.426c.035.144.057.282.066.414h-.836c-.045-.35-.167-.624-.366-.823-.2-.2-.48-.299-.839-.299-.246 0-.46.05-.644.15-.183.099-.335.238-.456.416a1.924 1.924 0 0 0-.273.645c-.06.252-.09.529-.09.83 0 .34.033.634.098.88.065.245.157.447.277.606.12.159.266.276.44.351.173.076.37.113.59.113a1.144 1.144 0 0 0 .816-.33c.11-.107.204-.24.282-.397a1.88 1.88 0 0 0 .166-.534h.835zm2.27-2.571h-1.794v-.77h4.481v.77h-1.793v4.386h-.894V6.858zm3.047-.77h.981l1.385 4.198h.02l1.385-4.198h.981l-1.987 5.363c-.1.27-.193.504-.277.703a4.575 4.575 0 0 1-.248.508c-.081.14-.163.253-.246.34a.989.989 0 0 1-.602.305 2.947 2.947 0 0 1-.42.026 1.517 1.517 0 0 1-.496-.058v-.799c.058.02.134.039.228.058.094.02.193.03.297.03.165 0 .299-.04.4-.119a.745.745 0 0 0 .236-.334l.292-.727-1.93-5.296zm8.844.77h-2.43v4.386h-.894V6.088h4.223v5.156h-.899V6.858zm2.211-.77h.894v2.08h2.43v-2.08h.899v5.156h-.899V8.938h-2.43v2.306h-.894V6.088zm9.17 2.57c0-.285-.032-.547-.097-.787a1.813 1.813 0 0 0-.292-.618 1.384 1.384 0 0 0-.478-.407 1.415 1.415 0 0 0-.659-.147 1.4 1.4 0 0 0-.656.147 1.391 1.391 0 0 0-.476.407c-.13.173-.227.38-.292.618-.064.24-.097.502-.097.788 0 .288.033.554.097.796.065.243.162.45.292.624.13.173.288.309.476.407a1.4 1.4 0 0 0 .656.146c.25 0 .47-.048.659-.146.19-.098.349-.234.478-.407a1.81 1.81 0 0 0 .292-.624 3.08 3.08 0 0 0 .097-.796zm.894 0c0 .424-.055.805-.165 1.144-.11.339-.269.627-.476.864a2.06 2.06 0 0 1-.76.547c-.3.126-.64.19-1.019.19-.379 0-.717-.064-1.015-.19a2.066 2.066 0 0 1-.759-.547 2.446 2.446 0 0 1-.476-.864 3.685 3.685 0 0 1-.165-1.143c0-.418.055-.795.165-1.132.11-.337.27-.624.476-.862.208-.237.46-.42.759-.546.298-.127.636-.19 1.015-.19.38 0 .719.063 1.018.19.3.127.553.309.76.546.208.238.367.525.477.862.11.337.165.714.165 1.132zm3.771-2.57h2.216c.635 0 1.11.117 1.426.351.316.234.474.575.474 1.02 0 .238-.058.439-.175.603-.116.163-.27.308-.461.433.275.103.494.25.656.443.162.192.243.441.243.746 0 .24-.04.457-.122.65a1.253 1.253 0 0 1-.37.491 1.73 1.73 0 0 1-.629.31 3.322 3.322 0 0 1-.9.109h-2.358V6.088zm.894 4.448h1.361c.236 0 .433-.018.59-.055.158-.037.283-.09.377-.161a.582.582 0 0 0 .2-.256.92.92 0 0 0 .058-.337.939.939 0 0 0-.059-.339.564.564 0 0 0-.199-.255 1.032 1.032 0 0 0-.377-.159 2.64 2.64 0 0 0-.59-.055h-1.36v1.617zm0-2.267h1.351c.302 0 .54-.06.715-.178.175-.12.262-.304.262-.554a.77.77 0 0 0-.073-.354.627.627 0 0 0-.194-.229.773.773 0 0 0-.275-.122 1.362 1.362 0 0 0-.313-.037h-1.473V8.27z" clip-rule="evenodd"/><defs><linearGradient id="paint0_linear" x1="17.055" x2="-2.787" y1="47.977" y2="42.698" gradientUnits="userSpaceOnUse"><stop stop-color="#00A0FF"/><stop offset=".007" stop-color="#00A1FF"/><stop offset=".26" stop-color="#00BEFF"/><stop offset=".512" stop-color="#00D2FF"/><stop offset=".76" stop-color="#00DFFF"/><stop offset="1" stop-color="#00E3FF"/></linearGradient><linearGradient id="paint1_linear" x1="33.421" x2="8.328" y1="30.183" y2="30.183" gradientUnits="userSpaceOnUse"><stop stop-color="#FFE000"/><stop offset=".409" stop-color="#FFBD00"/><stop offset=".775" stop-color="orange"/><stop offset="1" stop-color="#FF9C00"/></linearGradient><linearGradient id="paint2_linear" x1="9.23" x2="-5.985" y1="26.278" y2="-.136" gradientUnits="userSpaceOnUse"><stop stop-color="#FF3A44"/><stop offset="1" stop-color="#C31162"/></linearGradient><linearGradient id="paint3_linear" x1="-.131" x2="6.659" y1="35.427" y2="23.631" gradientUnits="userSpaceOnUse"><stop stop-color="#32A071"/><stop offset=".069" stop-color="#2DA771"/><stop offset=".476" stop-color="#15CF74"/><stop offset=".801" stop-color="#06E775"/><stop offset="1" stop-color="#00F076"/></linearGradient></defs></svg>