<svg xmlns="http://www.w3.org/2000/svg" width="30" height="19" fill="none"><path fill="#fff" fill-rule="evenodd" d="M0 9.5C0 14.793 4.227 19 9.545 19c5.455 0 9.137-3.8 9.137-9.229 0-.678 0-1.085-.137-1.628h-9V11.4H15c-.273 1.357-1.636 4.071-5.455 4.071-3.272 0-5.863-2.714-5.863-5.971s2.59-5.971 5.863-5.971c1.91 0 3.137.814 3.819 1.492l2.59-2.442C14.319.95 12.136 0 9.546 0 4.227 0 0 4.207 0 9.5zm27.273 1.357H30V8.143h-2.727V5.429h-2.728v2.714h-2.727v2.714h2.727v2.715h2.728v-2.715z" clip-rule="evenodd"/></svg>