<svg xmlns="http://www.w3.org/2000/svg" width="20" height="20" fill="none"><path fill-rule="evenodd" d="M0 10C0 4.489 4.489 0 10 0s10 4.489 10 10-4.489 10-10 10S0 15.511 0 10zm14.5-6.621A7.977 7.977 0 0 0 10 2c-1.67 0-3.22.509-4.5 1.379l1.46 1.46C7.855 4.312 8.892 4 10 4s2.146.31 3.04.84l1.46-1.461zM3.379 5.5l1.46 1.46C4.312 7.855 4 8.892 4 10s.31 2.146.84 3.04L3.379 14.5A7.977 7.977 0 0 1 2 10c0-1.67.509-3.22 1.379-4.5zM18 10c0-1.67-.509-3.22-1.379-4.5l-1.46 1.46c.528.894.839 1.931.839 3.04s-.31 2.146-.84 3.04l1.461 1.46A7.977 7.977 0 0 0 18 10zm-8-4c2.221 0 4 1.779 4 4s-1.779 4-4 4-4-1.779-4-4 1.779-4 4-4zm0 10a5.944 5.944 0 0 1-3.04-.84L5.5 16.621A7.977 7.977 0 0 0 10 18c1.67 0 3.22-.509 4.5-1.379l-1.46-1.46c-.894.528-1.931.839-3.04.839z" clip-rule="evenodd"/></svg>