<svg xmlns="http://www.w3.org/2000/svg" width="18" height="24" fill="none"><path fill-rule="evenodd" d="M17.25 1.5h.188c.31 0 .562-.252.562-.563V.563A.563.563 0 0 0 17.437 0H.563A.563.563 0 0 0 0 .563v.375c0 .31.252.562.563.562H.75c0 4.304 2.068 9.078 6.077 10.5C2.805 13.427.75 18.21.75 22.5H.562a.563.563 0 0 0-.562.563v.375c0 .31.252.562.563.562h16.875c.31 0 .562-.252.562-.563v-.375a.563.563 0 0 0-.563-.562h-.187c0-4.304-2.068-9.078-6.077-10.5 4.022-1.427 6.077-6.21 6.077-10.5zm-1.5 0c0 5.178-3.022 9.375-6.75 9.375S2.25 6.678 2.25 1.5h13.5zM9 13.125c-3.728 0-6.75 4.197-6.75 9.375h13.5c0-5.178-3.022-9.375-6.75-9.375zM4.612 19.5h8.777c.254 0 .477.171.543.417a9.4 9.4 0 0 1 .097.395.564.564 0 0 1-.549.688H4.52a.564.564 0 0 1-.549-.688c.03-.131.061-.263.097-.395a.563.563 0 0 1 .544-.417zm1.065-2.796a6.63 6.63 0 0 0-.317.41.562.562 0 0 0 .46.886h6.36a.562.562 0 0 0 .46-.887c-.1-.14-.206-.277-.317-.41a.566.566 0 0 0-.434-.203H6.111a.567.567 0 0 0-.434.204z" clip-rule="evenodd"/></svg>