<svg xmlns="http://www.w3.org/2000/svg" width="24" height="24" fill="none"><path fill-rule="evenodd" d="M0 12C0 5.375 5.373 0 12 0s12 5.375 12 12c0 6.629-5.373 12-12 12S0 18.629 0 12zm22.452 0C22.452 6.197 17.74 1.548 12 1.548 6.223 1.548 1.548 6.232 1.548 12c0 5.78 4.682 10.452 10.452 10.452 5.777 0 10.452-4.68 10.452-10.452zm-12.194 4.645h.58V10.84h-.58a.58.58 0 0 1-.58-.58V9.87c0-.32.26-.58.58-.58h2.323c.32 0 .58.26.58.58v6.774h.58c.322 0 .582.26.582.58v.388c0 .32-.26.58-.581.58h-3.484a.58.58 0 0 1-.58-.58v-.387c0-.32.26-.58.58-.58zm.194-10.064a1.548 1.548 0 1 1 3.096 0 1.548 1.548 0 0 1-3.096 0z" clip-rule="evenodd"/></svg>