<svg xmlns="http://www.w3.org/2000/svg" width="44" height="34" fill="none"><path fill="#FF5F00" d="M27.672 24.11H16.04V2.986h11.632V24.11z"/><path fill-rule="evenodd" d="M42.68 33.243a.353.353 0 0 0-.395.076.346.346 0 0 0-.104.25.365.365 0 0 0 .218.326.354.354 0 0 0 .28 0 .365.365 0 0 0 .217-.326.346.346 0 0 0-.217-.326zm-.14.603a.279.279 0 0 0 .25-.17.284.284 0 0 0-.058-.303.27.27 0 0 0-.192-.08.276.276 0 0 0-.195.08.267.267 0 0 0-.057.088.268.268 0 0 0-.022.108c0 .038.007.074.022.107a.26.26 0 0 0 .145.147c.033.015.07.023.107.023zm.118-.415a.148.148 0 0 0-.097-.028h-.15v.329h.07v-.123h.031l.1.123h.082l-.107-.124a.131.131 0 0 0 .077-.032.089.089 0 0 0 .027-.068.094.094 0 0 0-.033-.077zm-.178.122v-.088h.08c.018 0 .033.003.044.01.01.008.017.019.017.033a.039.039 0 0 1-.017.033.083.083 0 0 1-.044.012h-.08zM9.61 31.948c0-.627.406-1.142 1.07-1.142.636 0 1.064.493 1.064 1.142 0 .649-.428 1.142-1.063 1.142-.665 0-1.071-.515-1.071-1.142zm2.858-1.784v3.567h-.768v-.433c-.243.321-.613.523-1.115.523-.99 0-1.765-.783-1.765-1.873 0-1.09.775-1.873 1.765-1.873.502 0 .872.201 1.115.522v-.433h.768zm25.935 1.784c0-.627.407-1.142 1.07-1.142.636 0 1.064.493 1.064 1.142 0 .649-.428 1.142-1.063 1.142-.664 0-1.071-.515-1.071-1.142zm2.858-3.216V33.731h-.768v-.433c-.243.321-.613.523-1.115.523-.99 0-1.765-.783-1.765-1.873 0-1.09.776-1.873 1.765-1.873.502 0 .872.201 1.115.522v-1.865h.769zm-19.267 2.037c.495 0 .813.314.894.865h-1.832c.082-.515.391-.865.938-.865zm-1.743 1.179c0-1.112.724-1.873 1.759-1.873.988 0 1.668.76 1.676 1.873 0 .104-.008.201-.016.298h-2.62c.11.642.56.874 1.055.874.354 0 .731-.135 1.027-.374l.376.575c-.428.366-.915.5-1.447.5-1.056 0-1.81-.739-1.81-1.873zm11.026 0c0-.627.406-1.142 1.07-1.142.635 0 1.064.493 1.064 1.142 0 .649-.429 1.142-1.063 1.142-.665 0-1.071-.515-1.071-1.142zm2.857-1.784v3.567h-.767v-.433c-.244.321-.613.523-1.115.523-.99 0-1.766-.783-1.766-1.873 0-1.09.776-1.873 1.766-1.873.502 0 .87.201 1.115.522v-.433h.767zm-7.192 1.784c0 1.082.746 1.873 1.884 1.873.531 0 .885-.12 1.27-.425l-.37-.627c-.288.209-.59.32-.923.32-.613-.007-1.064-.454-1.064-1.141s.45-1.134 1.064-1.142c.333 0 .635.112.924.32l.368-.626c-.384-.306-.738-.425-1.27-.425-1.137 0-1.883.79-1.883 1.873zm8.965-1.35c.2-.314.488-.523.93-.523.156 0 .378.03.547.097l-.236.731a1.232 1.232 0 0 0-.48-.09c-.502 0-.754.329-.754.919v2h-.768v-3.568h.76v.433zm-19.643-.15c-.37-.246-.879-.373-1.44-.373-.894 0-1.47.433-1.47 1.142 0 .581.429.94 1.218 1.052l.363.052c.42.06.62.172.62.373 0 .276-.281.433-.805.433-.532 0-.916-.171-1.174-.373l-.362.604c.42.313.953.463 1.528.463 1.02 0 1.61-.485 1.61-1.164 0-.627-.465-.955-1.233-1.067l-.362-.053c-.332-.044-.598-.111-.598-.35 0-.262.251-.418.672-.418.45 0 .887.172 1.1.306l.333-.627zm8.973.15c.198-.314.486-.523.93-.523.155 0 .376.03.546.097l-.236.731a1.233 1.233 0 0 0-.48-.09c-.503 0-.754.329-.754.919v2h-.767v-3.568h.76v.433zm-5.62-.434H18.36v-1.082h-.776v1.082h-.715v.71h.715V32.5c0 .828.318 1.32 1.226 1.32.333 0 .717-.103.96-.275l-.221-.665a1.41 1.41 0 0 1-.68.202c-.383 0-.509-.24-.509-.597v-1.612h1.256v-.709zM8.14 31.492v2.24h-.776v-1.986c0-.604-.251-.94-.775-.94-.51 0-.864.329-.864.948v1.977h-.776v-1.985c0-.604-.258-.94-.767-.94-.525 0-.865.329-.865.948v1.977h-.775v-3.567h.768v.44c.288-.418.657-.53 1.034-.53.54 0 .923.24 1.166.635.326-.5.79-.642 1.241-.634.857.007 1.389.575 1.389 1.418z" clip-rule="evenodd"/><path fill="#F79410" fill-rule="evenodd" d="M42.1 21.437v.432h-.094v-.432h-.172v-.088h.44v.088H42.1zm.853-.089v.521h-.094v-.394l-.145.34h-.1l-.145-.339v.393h-.095v-.52h.135l.155.357.155-.358h.134z" clip-rule="evenodd"/><path fill="#EB001B" d="M16.785 13.546c0-4.285 1.985-8.102 5.077-10.562A13.15 13.15 0 0 0 13.647.112C6.305.112.353 6.127.353 13.546c0 7.42 5.952 13.435 13.294 13.435a13.15 13.15 0 0 0 8.215-2.873 13.463 13.463 0 0 1-5.077-10.562z"/><path fill="#F79E1B" d="M43.36 13.546c0 7.42-5.952 13.435-13.294 13.435a13.154 13.154 0 0 1-8.216-2.873 13.461 13.461 0 0 0 5.078-10.562c0-4.285-1.986-8.102-5.078-10.562A13.154 13.154 0 0 1 30.066.112c7.342 0 13.293 6.015 13.293 13.434z"/></svg>