<svg xmlns="http://www.w3.org/2000/svg" width="95" height="33" fill="none"><path fill-rule="evenodd" d="M31.335 12.998l.676-8.386h1.2l1.9 4.538c.187.463.397 1.128.397 1.128h.023s.222-.665.408-1.128l1.9-4.538h1.2l.665 8.386h-1.142l-.396-5.286c-.047-.51-.024-1.235-.024-1.235h-.023s-.256.772-.443 1.235l-1.643 3.778h-1.026l-1.632-3.778c-.186-.451-.443-1.259-.443-1.259h-.023s.023.749-.023 1.26l-.397 5.285h-1.154zm9.64-3.017c0-1.817 1.422-3.136 3.17-3.136 1.76 0 3.182 1.319 3.182 3.136 0 1.83-1.422 3.16-3.17 3.16-1.76 0-3.182-1.33-3.182-3.16zm1.154 0c0 1.26.909 2.162 2.028 2.162 1.107 0 2.028-.903 2.028-2.162 0-1.247-.92-2.138-2.028-2.138-1.12 0-2.028.89-2.028 2.138zm6.306-.44c0-2.15.606-3.456 2.657-4.335l2.11-.927.373.95-2.261.963c-1.178.546-1.737 1.247-1.819 2.4h.024c.524-.808 1.305-1.07 2.086-1.07 1.48 0 2.506 1.07 2.506 2.768 0 1.663-1.119 2.851-2.786 2.851-1.993 0-2.89-1.52-2.89-3.6zm1.177.75c0 1.187.757 1.876 1.667 1.876.932 0 1.69-.689 1.69-1.853 0-1.176-.758-1.877-1.644-1.877-1.002 0-1.713.796-1.713 1.853zm5.91 2.707v-6.01h1.083v3.587c0 .32-.023.749-.035.808h.024c.046-.107.326-.523.524-.808l2.541-3.587h1.096v6.01h-1.096V9.412c0-.285.035-.7.035-.796h-.023c-.035.107-.327.51-.513.796l-2.553 3.588h-1.084zm6.328.06v-1.034c.863-.13 1.33-1.01 1.33-3.183V6.988h3.95v6.01H66v-5.06h-1.737v.903c0 2.72-.676 4.122-2.413 4.217zm7.029-.06v-6.01h1.13v2.174h1.19c1.224 0 2.144.57 2.144 1.936 0 1.128-.676 1.9-2.168 1.9H68.88zm1.13-.831h1.015c.816 0 1.165-.451 1.165-1.081 0-.642-.35-1.093-1.165-1.093H70.01v2.174zm4.546.832V6.987h1.131v2.447h2.984V6.988h1.13v6.01h-1.13v-2.577h-2.984v2.578h-1.13zm12.332 0V6.987h1.131v6.01h-1.13zm-5.338 0V6.987h1.13v2.174h1.155c1.224 0 2.144.57 2.144 1.936 0 1.128-.676 1.9-2.156 1.9h-2.273zm1.13-.832h.991c.816 0 1.166-.451 1.166-1.081 0-.642-.361-1.093-1.177-1.093h-.98v2.174zm9.687-5.868c-.898 0-1.725-.547-1.725-1.52V4.6h.909v.166c0 .523.408.784.816.784s.827-.261.827-.796V4.6h.898v.178c0 .974-.816 1.52-1.725 1.52zm-2.6 6.7V6.987h1.084v3.587c0 .32-.023.749-.034.808h.023c.046-.107.326-.523.524-.808l2.541-3.587H95v6.01h-1.096V9.412c0-.285.035-.7.035-.796h-.023c-.035.107-.326.51-.513.796l-2.553 3.588h-1.084zM32.862 25.867v-5.024h-2.051v-.986h5.233v.986h-2.063v5.024h-1.119zm3.905-3.005c0-1.912 1.282-3.148 2.96-3.148 1.667 0 2.553 1.271 2.553 2.815 0 .155-.023.321-.046.488h-4.29c.058 1.294.968 1.995 2.028 1.995.63 0 1.27-.273 1.737-.7l.478.843c-.571.534-1.469.855-2.285.855-1.853 0-3.135-1.366-3.135-3.148zm1.212-.677h3.159c-.035-1.034-.664-1.58-1.434-1.58-.874 0-1.562.582-1.725 1.58zm5.024 3.742v-1.034c.862-.13 1.329-1.01 1.329-3.183v-1.853h3.951v6.01h-1.13v-5.06h-1.737v.903c0 2.72-.676 4.122-2.413 4.217zm6.644-3.065c0-1.912 1.282-3.148 2.96-3.148 1.667 0 2.553 1.271 2.553 2.815 0 .155-.023.321-.047.488h-4.289c.058 1.294.968 1.995 2.028 1.995.63 0 1.27-.273 1.737-.7l.478.843c-.571.534-1.469.855-2.285.855-1.853 0-3.135-1.366-3.135-3.148zm1.212-.677h3.159c-.035-1.034-.665-1.58-1.434-1.58-.874 0-1.562.582-1.725 1.58zm5.292.665c0-1.841 1.363-3.053 3.193-3.124v-2.174h1.084v2.174c1.83.071 3.183 1.283 3.183 3.124 0 1.853-1.352 3.077-3.182 3.16v2.233h-1.085V26.01c-1.83-.083-3.193-1.307-3.193-3.16zm4.277 2.198c1.201-.083 2.075-.903 2.075-2.198 0-1.306-.874-2.102-2.075-2.174v4.372zM57.27 22.85c0 1.295.862 2.115 2.074 2.198v-4.372c-1.212.072-2.074.868-2.074 2.174zm7.331 0c0-1.817 1.422-3.136 3.17-3.136 1.76 0 3.183 1.319 3.183 3.136 0 1.83-1.422 3.16-3.17 3.16-1.76 0-3.183-1.33-3.183-3.16zm1.154 0c0 1.26.91 2.162 2.028 2.162 1.108 0 2.028-.903 2.028-2.162 0-1.247-.92-2.138-2.028-2.138-1.119 0-2.028.89-2.028 2.138zm6.563 3.017v-6.01h1.13v2.447h2.984v-2.447h1.13v6.01h-1.13V23.29h-2.984v2.578h-1.13zM19.685 29.27V3.252C19.685 1.464 18.208 0 16.404 0H3.28C1.476 0 0 1.464 0 3.252V29.27c0 1.789 1.476 3.253 3.28 3.253h13.124c1.804 0 3.28-1.464 3.28-3.253zm-3.281 1.626H3.28c-.907 0-1.64-.727-1.64-1.626V3.252c0-.898.733-1.626 1.64-1.626h.82c.453 0 .82.364.82.813 0 .899.734 1.626 1.64 1.626h6.562c.906 0 1.64-.727 1.64-1.626 0-.449.368-.813.82-.813h.82c.907 0 1.641.728 1.641 1.626V29.27c0 .899-.734 1.626-1.64 1.626z" clip-rule="evenodd"/></svg>