<svg xmlns="http://www.w3.org/2000/svg" width="20" height="20" fill="none"><path fill-rule="evenodd" d="M18.765 8.633l.7.42c.714.429.714 1.466-.004 1.895l-.699.42a1.338 1.338 0 0 0-.59.808l-.005.018c-.093.339-.066.698.104 1.005l.396.713a1.105 1.105 0 0 1-.947 1.641l-.823.014a1.33 1.33 0 0 0-.918.407l-.008.008c-.246.246-.4.569-.407.917l-.014.823a1.105 1.105 0 0 1-1.64.947l-.714-.396a1.334 1.334 0 0 0-1.023-.099c-.334.09-.629.292-.807.59l-.42.7a1.105 1.105 0 0 1-1.894 0l-.42-.7a1.338 1.338 0 0 0-.826-.595 1.333 1.333 0 0 0-1.005.104l-.713.396a1.105 1.105 0 0 1-1.64-.947l-.014-.823a1.33 1.33 0 0 0-.407-.917l-.008-.008c-.246-.246-.57-.4-.918-.407l-.823-.014a1.105 1.105 0 0 1-.948-1.64l.397-.715a1.333 1.333 0 0 0 .099-1.024 1.336 1.336 0 0 0-.59-.807l-.7-.42a1.105 1.105 0 0 1 0-1.895l.7-.42c.298-.178.498-.473.59-.807l.005-.019a1.333 1.333 0 0 0-.104-1.004l-.397-.713a1.105 1.105 0 0 1 .948-1.642l.823-.014a1.33 1.33 0 0 0 .918-.407l.008-.008c.246-.246.4-.569.407-.917l.014-.824a1.104 1.104 0 0 1 1.64-.947l.711.395c.31.172.672.2 1.013.106l.005-.002.005-.002a1.35 1.35 0 0 0 .814-.594l.418-.696a1.105 1.105 0 0 1 1.895 0l.419.699c.178.298.473.498.808.59l.018.005c.338.093.698.066 1.005-.104l.713-.397a1.105 1.105 0 0 1 1.641.949l.014.823c.006.349.16.672.407.918l.008.008c.246.246.57.4.918.407l.823.013c.834.014 1.352.912.948 1.641l-.397.713c-.17.307-.197.667-.104 1.005l.002.007a1.335 1.335 0 0 0 .593.82zM6.124 12.298h.799V7.683h-.924v2.875h-.058L3.817 7.683h-.806v4.615h.924V9.41h.059l2.13 2.888zm4.626-3.79H8.658v1.078h1.974v.764H8.658v1.123h2.092v.825H7.692V7.683h3.058v.825zm4.377 3.79h.905l1.225-4.615h-.997l-.714 3.253h-.051l-.857-3.253h-.815l-.842 3.253h-.051l-.72-3.253h-1.005l1.221 4.615h.912l.864-3.055h.051l.873 3.055z" clip-rule="evenodd"/></svg>