<svg xmlns="http://www.w3.org/2000/svg" width="22" height="24" fill="none"><path fill-rule="evenodd" d="M20.643 16.982l-.177-.187c-.932-.98-2.423-2.548-2.423-7.045 0-3.642-2.554-6.558-5.997-7.273V1.5a1.5 1.5 0 1 0-2.998 0v.977C5.604 3.192 3.05 6.107 3.05 9.75c0 4.498-1.49 6.065-2.423 7.045l-.177.187A1.465 1.465 0 0 0 .047 18c.005.769.608 1.5 1.505 1.5h17.99c.896 0 1.5-.731 1.505-1.5a1.463 1.463 0 0 0-.404-1.018zm-17.43.268c.994-1.311 2.082-3.484 2.087-7.473l-.002-.013-.001-.014a5.25 5.25 0 1 1 10.5 0c0 .005 0 .01-.002.014v.013c.004 3.99 1.092 6.162 2.086 7.473H3.212zM13.544 21a3 3 0 1 1-5.997 0h5.998z" clip-rule="evenodd"/></svg>