<svg xmlns="http://www.w3.org/2000/svg" width="14" height="24" fill="none"><path fill="#fff" fill-rule="evenodd" d="M6.953 11.801c-3.224-.01-5.868-2.684-5.85-5.913C1.124 2.622 3.769-.01 7.025 0c3.263.009 5.882 2.678 5.865 5.977-.016 3.223-2.678 5.835-5.936 5.824zm-1.1 4.621c-1.808-.188-3.438-.633-4.833-1.725l-.105-.08c-.139-.109-.279-.217-.405-.338-.61-.586-.672-1.258-.189-1.95.414-.593 1.107-.751 1.829-.411.14.066.273.148.4.237 2.6 1.786 6.172 1.836 8.782.08a2.38 2.38 0 0 1 .856-.443c.623-.16 1.204.07 1.538.614.382.623.377 1.23-.094 1.713-.721.741-1.59 1.277-2.554 1.651-.912.354-1.91.532-2.9.65l.1.11c.087.094.144.156.213.226l1.47 1.473c.854.856 1.709 1.712 2.56 2.572.455.461.55 1.033.3 1.57-.275.585-.89.97-1.492.93-.382-.027-.68-.217-.944-.483-.332-.334-.666-.666-1-.998-.685-.682-1.37-1.363-2.038-2.061-.288-.302-.427-.245-.682.017a203.078 203.078 0 0 1-3.097 3.11c-.468.461-1.025.544-1.567.28-.577-.279-.944-.868-.916-1.46.02-.4.217-.705.491-.98 1.07-1.068 2.139-2.14 3.207-3.21v-.001l.772-.774c.054-.054.106-.11.167-.178l.13-.14zM7 3.014a2.874 2.874 0 0 1 2.883 2.881A2.868 2.868 0 0 1 7.016 8.79 2.874 2.874 0 0 1 4.11 5.93 2.878 2.878 0 0 1 7 3.014z" clip-rule="evenodd"/></svg>