<svg xmlns="http://www.w3.org/2000/svg" width="100" height="26" fill="none"><path fill="#253B80" fill-rule="evenodd" d="M29.306 5.307h5.756c1.926 0 3.377.506 4.195 1.463.745.871.991 2.116.734 3.7-.572 3.62-2.76 5.447-6.551 5.447h-1.822a.798.798 0 0 0-.79.673l-.628 3.963a.799.799 0 0 1-.79.674h-2.748a.478.478 0 0 1-.474-.552l2.328-14.696a.799.799 0 0 1 .79-.672zm3 7.424c1.527 0 3.105 0 3.42-2.057.115-.722.022-1.245-.28-1.597-.507-.59-1.487-.59-2.526-.59h-.398a.479.479 0 0 0-.474.403l-.61 3.84h.869zM49.599 10.86h2.836c.303 0 .534.25.486.525l-1.533 8.956c-.064.37-.407.642-.813.642H48.02c-.302 0-.535-.25-.487-.528l.127-.727s-1.4 1.498-3.926 1.498c-1.472 0-2.709-.391-3.573-1.33-.942-1.023-1.328-2.488-1.056-4.02.52-3.073 3.198-5.263 6.332-5.263 1.367 0 2.736.275 3.35 1.097l.199.266.125-.732c.037-.222.246-.385.488-.385zm-4.318 7.59c1.64 0 2.927-1.003 3.2-2.498.124-.724-.047-1.38-.48-1.851-.43-.466-1.085-.713-1.89-.713-1.616 0-2.924 1.037-3.18 2.519-.133.727.027 1.38.446 1.838.422.462 1.08.706 1.904.706z" clip-rule="evenodd"/><path fill="#253B80" d="M66.372 10.613h-2.669a.775.775 0 0 0-.638.337l-3.681 5.393-1.56-5.183a.772.772 0 0 0-.74-.547H54.46a.46.46 0 0 0-.439.609l2.94 8.581-2.764 3.881a.46.46 0 0 0 .377.726h2.666a.77.77 0 0 0 .633-.329l8.878-12.746a.46.46 0 0 0-.38-.722z"/><path fill="#179BD7" fill-rule="evenodd" d="M69.959 5.307h5.756c1.927 0 3.377.506 4.194 1.463.745.871.993 2.116.735 3.7-.572 3.62-2.76 5.447-6.552 5.447H72.27a.798.798 0 0 0-.79.673l-.66 4.166a.559.559 0 0 1-.553.47h-2.954a.478.478 0 0 1-.473-.551L69.17 5.979a.798.798 0 0 1 .79-.672zm3.002 7.424c1.526 0 3.105 0 3.418-2.057.116-.722.024-1.245-.278-1.597-.507-.59-1.488-.59-2.527-.59h-.398a.477.477 0 0 0-.473.403l-.61 3.84h.868zM90.25 10.86h2.836c.304 0 .536.25.489.525l-1.534 8.956c-.063.37-.408.642-.812.642h-2.555c-.303 0-.536-.25-.488-.528l.126-.727s-1.4 1.498-3.926 1.498c-1.471 0-2.706-.391-3.572-1.33-.943-1.023-1.326-2.488-1.056-4.02.521-3.073 3.198-5.263 6.332-5.263 1.367 0 2.735.275 3.35 1.097l.198.266.126-.732c.037-.222.243-.385.487-.385zm-4.319 7.59c1.64 0 2.929-1.003 3.2-2.498.126-.724-.045-1.38-.479-1.851-.431-.466-1.086-.713-1.892-.713-1.615 0-2.921 1.037-3.178 2.519-.132.727.026 1.38.445 1.838.423.462 1.083.706 1.904.706z" clip-rule="evenodd"/><path fill="#179BD7" d="M96.123 5.71l-2.535 14.965c-.05.29.192.552.507.552h2.55c.423 0 .783-.285.848-.673l2.5-14.695c.05-.29-.192-.552-.507-.552H96.63c-.252 0-.469.171-.508.404z"/><path fill="#253B80" d="M6.157 24.41l.428-2.757-.955-.022H1.07L4.24 1.284a.27.27 0 0 1 .088-.16.257.257 0 0 1 .169-.063h7.69c2.552 0 4.314.538 5.234 1.6.431.498.706 1.018.838 1.591.14.6.142 1.319.006 2.195l-.01.064v.56l.432.248c.363.195.651.418.873.674.369.426.607.967.708 1.609.104.66.07 1.445-.1 2.334-.198 1.022-.516 1.913-.945 2.642a5.41 5.41 0 0 1-1.496 1.66c-.571.41-1.249.721-2.016.92-.742.196-1.59.295-2.518.295h-.598c-.428 0-.844.156-1.17.436a1.84 1.84 0 0 0-.61 1.102l-.045.248-.758 4.86-.034.178c-.01.057-.025.085-.048.104a.126.126 0 0 1-.078.03H6.157z"/><path fill="#179BD7" d="M19.304 6.368c-.023.152-.05.307-.08.467-1.023 5.39-4.526 7.252-9 7.252H7.946c-.547 0-1.008.407-1.093.96l-1.166 7.584-.33 2.15a.593.593 0 0 0 .575.69h4.04a.98.98 0 0 0 .96-.84l.04-.21.76-4.95.049-.271a.98.98 0 0 1 .96-.842h.604c3.914 0 6.979-1.63 7.874-6.345.374-1.97.18-3.614-.81-4.77a3.875 3.875 0 0 0-1.105-.875z"/><path fill="#222D65" d="M18.153 5.686a8.34 8.34 0 0 0-1.027-.228 13.038 13.038 0 0 0-2.07-.151H8.78a1 1 0 0 0-.99.847l-1.334 8.458-.038.246a1.14 1.14 0 0 1 1.127-.966h2.349c4.613 0 8.224-1.874 9.28-7.296.032-.16.058-.317.082-.47a5.625 5.625 0 0 0-.868-.366 7.715 7.715 0 0 0-.236-.074z"/><path fill="#253B80" d="M7.985 6.396a.97.97 0 0 1 .963-.824h6.107c.723 0 1.399.048 2.015.147a8.09 8.09 0 0 1 1.23.293c.303.101.585.22.845.357.305-1.95-.003-3.277-1.057-4.48C16.926.568 14.828 0 12.145 0h-7.79c-.55 0-1.017.399-1.102.941L.008 21.513a.67.67 0 0 0 .66.775h4.81l1.208-7.664 1.3-8.228z"/></svg>