<svg xmlns="http://www.w3.org/2000/svg" width="89" height="33" fill="none"><path fill="#FF8C00" fill-rule="evenodd" d="M31.1 32.888c-3.292-3.003-6.266-3.967-9.008-3.967-1.667 0-3.044.125-4.293.238-1.035.094-1.983.18-2.934.18C8.369 29.338 2.69 24.85 1.033 18.41-.623 11.97 2.16 5.194 7.81 1.91 13.46-1.377 20.56-.347 25.1 4.417c4.539 4.764 5.378 12.066 2.044 17.781a.085.085 0 0 1-.158-.036c-.49-3.605-2.637-5.589-5.763-6.169-.262-.052-.321-.223.036-.253 1-.09 2.007-.071 3.003.058.041-.375.061-.752.06-1.13.002-3.924-2.302-7.462-5.837-8.964-3.536-1.502-7.606-.671-10.31 2.105-2.705 2.776-3.512 6.95-2.044 10.574 1.469 3.623 4.922 5.983 8.749 5.976h.446a13.335 13.335 0 0 1-.178-2.621c0-.59.125-.675.384-.211 1.31 2.31 3.188 4.42 6.837 5.244 2.986.674 5.978 1.47 9.213 5.67.289.373-.152.752-.482.446zm22.357-10.247a.31.31 0 0 0-.073-.356l-2.557-3c2.306-3.675 1.537-8.54-1.782-11.281-3.318-2.74-8.119-2.473-11.128.62-3.01 3.093-3.259 8.016-.578 11.412 2.68 3.397 7.427 4.173 11.005 1.8l.637.788a.51.51 0 0 0 .4.192h3.765a.296.296 0 0 0 .311-.175zm26.098-16.1h3.438a.4.4 0 0 1 .322.177.413.413 0 0 1 .09.36l-5.061 15.433a.412.412 0 0 1-.387.284h-2.718a.412.412 0 0 1-.387-.284l-2.977-9.017-2.959 9.017a.412.412 0 0 1-.386.284H65.8a.409.409 0 0 1-.387-.284l-5.06-15.432a.427.427 0 0 1 .058-.376.405.405 0 0 1 .331-.17h3.43a.41.41 0 0 1 .39.304l2.753 9.12 2.977-9.123a.412.412 0 0 1 .387-.283h2.399c.176 0 .332.114.39.283l2.977 9.124 2.72-9.111a.407.407 0 0 1 .39-.306zM59.052 22.383V6.96a.413.413 0 0 0-.408-.419h-3.072a.403.403 0 0 0-.29.122.424.424 0 0 0-.121.297v15.423c0 .111.043.218.12.296a.403.403 0 0 0 .29.122h3.073a.413.413 0 0 0 .408-.418zM88.164 6.54h-3.063a.403.403 0 0 0-.29.122.424.424 0 0 0-.12.297v15.423c0 .111.043.218.12.296a.402.402 0 0 0 .29.122h3.072a.413.413 0 0 0 .408-.418V6.96a.424.424 0 0 0-.123-.3.402.402 0 0 0-.294-.119zM45.921 18.836l-1.646-2.045a.333.333 0 0 1-.045-.349.318.318 0 0 1 .29-.188h3.45a5.124 5.124 0 0 0 .255-1.594c0-2.548-1.848-4.746-4.388-4.746-2.539 0-4.387 2.198-4.387 4.746 0 2.549 1.851 4.713 4.387 4.713a4.169 4.169 0 0 0 2.084-.537zm-20.125 4.273c.193 0 .392-.272.297-.916-.053-.381-.262-1.215-.789-1.416a.44.44 0 0 0-.595.174c-.158.293-.045.867.277 1.383.321.516.616.775.81.775zm-2.638.485c.637.553.83 1.221.494 1.673-.207.263-.524.41-.854.394-.356 0-.7-.129-.973-.364-.596-.518-.75-1.358-.372-1.83a.835.835 0 0 1 .675-.288c.38.011.744.158 1.03.415z" clip-rule="evenodd"/></svg>