<svg xmlns="http://www.w3.org/2000/svg" width="16" height="16" fill="none"><path fill-rule="evenodd" d="M0 8c0-4.411 3.589-8 8-8 4.412 0 8 3.589 8 8 0 4.412-3.588 8-8 8-4.411 0-8-3.588-8-8zm14.667 0A6.656 6.656 0 0 0 8 1.333 6.656 6.656 0 0 0 1.333 8 6.656 6.656 0 0 0 8 14.667 6.656 6.656 0 0 0 14.667 8zM8 4a2.675 2.675 0 0 0-2.667 2.667h1.334c0-.745.588-1.334 1.333-1.334s1.333.589 1.333 1.334c0 .51-.328.963-.812 1.125l-.271.083c-.544.18-.917.7-.917 1.27V10h1.334v-.854l.27-.084a2.538 2.538 0 0 0 1.73-2.395C10.667 5.2 9.467 4 8 4zm-.667 8v-1.333h1.334V12H7.333z" clip-rule="evenodd"/></svg>