<svg xmlns="http://www.w3.org/2000/svg" width="25" height="23" fill="none"><path fill="#EEE" d="M24.445 8.53c-.066-.301-.352-.485-.665-.485h-7.97L13.202.485C13.088.156 12.862 0 12.51 0c-.352 0-.59.156-.704.485l-2.608 7.56h-7.97c-.352 0-.574.157-.691.485-.091.354-.014.617.235.812l6.391 5.019-2.322 7.69c-.102.339 0 .617.261.813.287.17.588.192.86 0l6.548-4.586 6.535 4.586c.14.098.287.131.43.131a.709.709 0 0 0 .718-.72c0-.066-.01-.159-.052-.302l-2.296-7.612 6.39-5.019c.258-.201.327-.471.21-.812z"/><path fill="#FF5E00" fill-rule="evenodd" d="M12 .174a.741.741 0 0 0-.194.311l-2.608 7.56h-7.97c-.352 0-.574.157-.691.485-.091.354-.014.617.235.812l6.391 5.019-2.322 7.69c-.102.339 0 .617.261.813.287.17.588.192.86 0L12 18.636V.174z" clip-rule="evenodd"/></svg>