<svg xmlns="http://www.w3.org/2000/svg" width="20" height="15" fill="none"><path fill-rule="evenodd" d="M9.972 0C8.75.022 7.857.387 7.314 1.1c-.642.846-.759 2.135-.353 3.82-.149.184-.262.461-.218.831.089.732.373 1.033.613 1.152.114.575.43 1.221.737 1.526v.156c.003.337.001.63-.031 1.007-.204.467-.88.741-1.661 1.048l-.012.005c-1.296.51-2.9 1.142-3.02 3.151l-.02.353h13.33l-.022-.353a3.327 3.327 0 0 0-.063-.445l-.01-.043a4.46 4.46 0 0 1-.017-.088 1.903 1.903 0 0 0-.045-.192.223.223 0 0 0-.015-.036c-.006-.012-.012-.024-.016-.037l-.016-.047c-.027-.08-.054-.16-.088-.233a.36.36 0 0 0-.02-.041c-.048-.1-.099-.191-.156-.28-.593-.93-1.658-1.35-2.573-1.713h-.002c-.777-.308-1.457-.582-1.66-1.049a8.23 8.23 0 0 1-.023-.857l.002-.14V8.43c.298-.305.604-.948.716-1.526.234-.12.526-.423.612-1.152.045-.362-.062-.637-.207-.82.193-.658.588-2.37-.094-3.467a1.803 1.803 0 0 0-.57-.571 2.018 2.018 0 0 0-.333-.177 2.32 2.32 0 0 0-.384-.114C11.381.206 10.78 0 9.972 0zM14.3.332c-.471.01-.88.086-1.236.218.187.162.353.354.488.571.717 1.154.493 2.726.24 3.717.14.298.187.638.145.996-.093.772-.377 1.21-.675 1.464-.137.503-.377 1.021-.644 1.38v.017a9.2 9.2 0 0 0 .01.7c.178.2.769.434 1.225.614l.021.009c1.018.402 2.438.969 3.094 2.335H20l-.02-.352c-.105-1.732-1.483-2.275-2.586-2.71-.612-.241-1.19-.472-1.36-.84a8.706 8.706 0 0 1-.02-.831v-.115c.264-.276.508-.82.602-1.276.205-.116.445-.383.519-.997.036-.306-.044-.542-.166-.706.167-.577.482-2.012-.094-2.938-.245-.394-.615-.637-1.1-.737-.278-.337-.788-.519-1.474-.519zM6.935.571A3.723 3.723 0 0 0 5.699.353c-.686 0-1.196.181-1.474.519-.485.1-.855.342-1.1.737-.576.925-.261 2.36-.094 2.938-.122.163-.202.4-.166.705.074.614.314.882.52.997.093.455.337 1 .601 1.277v.114c.003.28.004.52-.02.83-.17.37-.748.6-1.36.841-1.103.435-2.481.979-2.585 2.71L0 12.374h3.031c.656-1.367 2.076-1.934 3.094-2.336l.02-.008c.457-.18 1.048-.414 1.226-.615.015-.246.013-.455.01-.7v-.016c-.267-.36-.507-.877-.644-1.38-.298-.254-.582-.692-.674-1.464a1.806 1.806 0 0 1 .145-.997c-.254-.99-.478-2.563.239-3.716.135-.217.3-.41.488-.571z" clip-rule="evenodd"/></svg>