<svg xmlns="http://www.w3.org/2000/svg" width="20" height="20" fill="none"><path fill-rule="evenodd" d="M20 0S12.511-.018 6.673 5.82c-.27.27-.505.564-.717.867-1.035-.082-2.62-.055-3.431.756C.632 9.337 0 12.493 0 12.493l4.17-.596v1.43l2.503 2.503h1.43L7.507 20s3.157-.632 5.05-2.525c.811-.811.838-2.396.756-3.43a6.44 6.44 0 0 0 .866-.718C20.018 7.49 20 0 20 0zm-6.655 4.987a1.668 1.668 0 1 1 .001 3.335 1.668 1.668 0 0 1 0-3.335zM2.637 14.649c.248-.248.549-.407.865-.49l.382.382a.744.744 0 0 1-.062.039c-.035.02-.07.04-.1.07-.814.813-.407 2.033-.407 2.033s1.22.406 2.033-.407c.03-.03.051-.066.072-.102a.755.755 0 0 1 .037-.06l.382.38a1.899 1.899 0 0 1-.49.867c-1.155 1.154-3.67.958-3.67.958s-.18-2.531.958-3.67z" clip-rule="evenodd"/></svg>