<svg xmlns="http://www.w3.org/2000/svg" width="18" height="20" fill="none"><path fill-rule="evenodd" d="M.818 8.333C.818 3.542 4.758 0 9.486 0c4.334 0 7.696 3.906 7.696 8.333V10.6c.409.407.818 1.025.818 1.901 0 1.751-1.636 2.5-1.636 2.5h-.819V8.333c0-3.57-2.7-6.666-6.06-6.666-3.943 0-7.03 2.793-7.03 6.666V15h-.819S0 14.251 0 12.5c0-.876.41-1.494.818-1.901V8.333zm2.455.99s.326-.156 1.227-.156 1.227.156 1.227.156v6.354s-.326.156-1.227.156-1.227-.156-1.227-.156V9.323zM13.5 9.167c-.901 0-1.227.156-1.227.156v6.354s.326.156 1.227.156 1.227-.156 1.227-.156V9.323s-.326-.156-1.227-.156zm2.046 8.75v-2.084h.818v2.084c0 1.142-.924 2.083-2.046 2.083H7.364v-1.667h3.272v.834h3.682a1.24 1.24 0 0 0 1.228-1.25z" clip-rule="evenodd"/></svg>