<svg xmlns="http://www.w3.org/2000/svg" width="21" height="20" fill="none"><path fill-rule="evenodd" d="M11.294 0h-2.51l-.496 2.928c-.752.167-1.429.418-2.013.837L3.843 2.013 2.091 3.765l1.752 2.431c-.333.585-.67 1.262-.836 2.013L0 8.784v2.51l2.928.497c.167.752.503 1.428.837 2.013l-1.752 2.431 1.752 1.752 2.431-1.752c.585.334 1.262.67 2.013.837L8.706 20h2.51l.496-3.006c.664-.166 1.33-.497 1.994-.828l.02-.01 2.51 1.753 1.75-1.752-1.75-2.431c.333-.586.67-1.262.836-2.014l3.006-.418v-2.51l-3.006-.496a6.854 6.854 0 0 0-.837-2.013l1.752-2.51-1.752-1.752-2.431 1.752c-.585-.334-1.261-.67-2.013-.837L11.294 0zM7 10c0-1.65 1.35-3 3-3s3 1.35 3 3-1.35 3-3 3-3-1.35-3-3z" clip-rule="evenodd"/></svg>