<svg xmlns="http://www.w3.org/2000/svg" width="18" height="17" fill="none"><path fill-rule="evenodd" d="M16.5 1.545l1.465 13.582c.021.106.035.215.035.327 0 .854-.671 1.546-1.5 1.546h-15C.671 17 0 16.308 0 15.454c0-.112.013-.221.035-.327L1.5 1.545C1.5.692 2.171 0 3 0h12c.829 0 1.5.692 1.5 1.545zm-3.75 3.091v-.843c.436-.16.75-.585.75-1.088 0-.64-.504-1.16-1.125-1.16s-1.125.52-1.125 1.16v1.931c0 1.278-1.01 2.319-2.25 2.319s-2.25-1.04-2.25-2.319V2.705c0-.64-.504-1.16-1.125-1.16S4.5 2.065 4.5 2.705c0 .503.314.928.75 1.088v.843C5.25 6.766 6.932 8.5 9 8.5s3.75-1.733 3.75-3.864z" clip-rule="evenodd"/></svg>