<svg xmlns="http://www.w3.org/2000/svg" width="24" height="23" fill="none"><path fill-rule="evenodd" d="M23.28 8.045c.313 0 .6.184.665.485.117.34.048.61-.21.812l-6.39 5.019 2.296 7.612c.043.143.052.236.052.302 0 .406-.313.72-.718.72a.729.729 0 0 1-.43-.13l-6.535-4.587-6.547 4.586c-.273.192-.574.17-.86 0-.262-.196-.364-.474-.262-.812l2.322-7.691L.272 9.342c-.249-.195-.326-.458-.235-.812.117-.328.34-.485.691-.485h7.97l2.608-7.56C11.42.156 11.658 0 12.01 0c.353 0 .578.156.692.485l2.608 7.56h7.97zm-7.46 6.25a.758.758 0 0 1 .247-.773L21.193 9.5h-6.405c-.338 0-.564-.155-.678-.484l-2.1-6.093-2.112 6.093c-.114.328-.34.484-.666.484H2.815l5.126 4.023c.22.173.328.507.248.773l-1.852 6.171 5.27-3.668a.65.65 0 0 1 .795 0l5.27 3.668-1.853-6.171z" clip-rule="evenodd"/></svg>