<svg xmlns="http://www.w3.org/2000/svg" width="43" height="42" fill="none"><path fill="#757575" d="M32.799 0l-3.071 1.313s-3.459.856-5.323.856c-.46 0-.928-.026-1.4-.07-.94-.092-1.947-.016-3.005-.016-.521 0-1.511.1-1.511.1s-5.417 3.576-7.412 7.192c-.285 1.162.308 3.722.308 3.722s.973 2.372.456 3.449C11.336 17.601 10 19.523 10 19.523s.088 3.029.407 4.575c.301 1.454-.183 3.715-.183 3.715s.894 1.735 3.261 2.185c.765.144 23.494-7.074 23.342-8.431-.152-1.361-.962-20.752-3.069-21.324C33.446.07 32.799 0 32.799 0z"/><path fill="#424242" d="M42.346 15.812L43 13.307l-.685-1.69-.765-.889.424-1.999-2.204-2.358s-1.811-1.181-1.667-2.579c.27-2.608-4.106-3.674-4.106-3.674S32.966.041 32.799 0c1.86 1.026 2.45 6.345 2.45 6.345L35.125 8.5l.223 2.099c.154.037-.508 2.951-.221 4.663.279 1.663-1.176 3.682-1.176 3.682s-6.96 2.619-6.944 4.25c.008.882.289 1.232-.293 1.959-.453.564-2.02 1.417-2.02 1.417l-1.362-.576-1.754.343s-.117.057-.32.151c-.68-1.049-1.228-2.018-1.358-2.418.05-2.35-3.22-3.621-5.29-3.941l-.45-.07-.41.19c-1.19.56-2.75 1.461-3.09 1.461-.13-.01-.32-.05-.51-.09-.01 0-.03 0-.04-.01.07.86.16 1.81.3 2.49.04.19.07.39.08.6.04.01.08.01.12.01 1.08 0 2.9-.73 3.85-1.15 1 .19 2.02.53 2.43.8.06.479.35 1.379 1.557 3.315-2.375.907-5.434 1.813-6.69 1.053-.653-.395-1.068-.848-1.441-1.412-.03.184-.061.291-.088.497-.304 2.343.89 3.678 3.257 4.128.765.144 2.329.417 2.329.417l2.165.343 1.396 1.291.415.008.322-.063 2.368-.467 5.266-1.038L29.998 32h5.085s3.077-1.678 3.876-3.076c.883-1.535 3.778-3.392 3.778-3.392L43 21.61s-.552-1.952-1.145-3.114c-.685-1.331.49-2.684.49-2.684z"/><path fill="#757575" d="M19.784 29.492s-2.476-3.591-2.394-4.373C17.544 23.662 13.264 23 13.264 23s-2.598 1.212-3.658 1.212c-.262 0-1.009-.187-1.277-.212-.534-.052-1.373 2-1.974 2H4.381s-1.164.229-2.298 2.25c-.162.649.175 2.08.175 2.08s.502 1.314.208 1.916c-.288.59-.836 1.219-1.047 1.664-.986 2.09.051 1.693.233 2.557.124.589.014 1.411-.056 1.82-.012.068.462 2.311 1.805 2.563C3.835 40.93 14 37 14 37l5.784-7.508z"/><path fill="#555" d="M16 9.668c-.017-.46.646-1.71.646-1.71s1.697-.879 2.342-1.318c.693-.363 1.992-.673 3.946-.637.448.975-.641 1.833.36 2.681.478.397.706 1.064.706 1.064s-.623.84-.65 1.309c-.03.439.497.718.497 1.085.004.646-1.334 1.001-1.334 1.001l-2.185 1.596s-.796 1.306-1.814 1.26c-2.062-.101-1.334-3.72-1.334-3.72S16.027 10.601 16 9.668zM27.001 5.963c-.013-.293.493-1.09.493-1.09s1.297-.561 1.791-.841c.53-.232 1.03.873 1.794 1.414 1.02 0 1.563 1.104 1.543 1.403-.025.279.378.457.378.691.003.412-1.02.638-1.02.638l-1.67 1.018s-.609.833-1.388.803c-.902-.91-1.9-3.441-1.92-4.036zM25 16c-.011-.245 0-1 0-1s1.589-.767 2-1c.442-.193 2 2 3 2-.02.233 0 .755 0 .95.003.343-1 1.05-1 1.05s0 1-2.398.999c-.359-.361-.304-1.431-.602-1.999-.327-.623-.991-.74-1-1zM4.014 34.405c.18-.325.85-1.699 1.57-1.348.517.252.274.803 1.014.884.345.038 1.295.544 1.402.954.057.22-.235.644-.372.83-.231.322-.578 1.065-.578 1.065s-1.901.474-1.901 0c0-.948-1.3-2.083-1.135-2.385zM8.304 29.708s-.36-.72-.297-.962c.11-.397.752-.584.96-.966.226-.411 1.072-2.152 1.982-1.708.653.32.346 1.017 1.281 1.12.435.048.836.286.836.286l.133.782s.578.187.727.356c.257.294-.222.599-.396.834-.292.408-.658 1.348-.658 1.348s-.168.925-.786 1.194c-.089.126-2.269-1.318-2.269-1.318l-1.513-.966z"/><path fill="#555" d="M19.784 29.492s-2.656 2.356-3.394 2.627C14 33 14.956 35 14.355 35c-.296 0-1.974 2-1.974 2s-2.854-.743-3.988 1.278c-.162.649-2.632.367-2.927.969-.288.59-3.801-1.369-3.871-.96-.012.068.462 2.311 1.805 2.563.435.08 1.323.233 1.323.233l1.23.192.507.358c.341.238.747.367 1.162.367h2.719a2.41 2.41 0 0 0 1.225-.335l1.369-.811 3-.476s1.486-.433 1.94-1.214c.503-.858 2.125-4.112 2.125-4.112l-.216-5.56z"/></svg>