<svg xmlns="http://www.w3.org/2000/svg" width="21" height="18" fill="none"><path fill="#fff" fill-rule="evenodd" d="M5.462 10.07L.853 8.35a.544.544 0 0 1-.005-1.017L19.76.037c.4-.155.815.197.727.618L17.094 16.98a.543.543 0 0 1-.85.328l-4.634-3.364a.766.766 0 0 0-.934.026l-2.569 2.095a.542.542 0 0 1-.862-.26L5.462 10.07zm10.502-6.463L6.958 9.154a.907.907 0 0 0-.396 1.02l.974 3.422c.069.242.42.217.454-.033l.253-1.876a1.54 1.54 0 0 1 .478-.922l7.433-6.91c.139-.129-.028-.348-.19-.248z" clip-rule="evenodd"/></svg>