<svg xmlns="http://www.w3.org/2000/svg" width="19" height="20" fill="none"><path fill-rule="evenodd" d="M5.274.275C5.534.12 5.775 0 6.076 0c.8 0 1.512.414 1.922 1.05A4.61 4.61 0 0 1 9.502.8c.527 0 1.03.087 1.503.25A2.285 2.285 0 0 1 12.928 0c.3 0 .54.12.801.275.26.155.52.36.727.588.495.537.655.954.752 1.362.12.505-.063.998-.345 1.387a2.59 2.59 0 0 1-.801.726 4.8 4.8 0 0 1-.271 3.287l.86.466.005.003h.001l.004.002.002.001c1.198.65 2.762 1.497 3.183 1.716.195.103.358.215.505.337.09.077.174.155.246.237.432.496.527 1.108.235 1.763-.016.035-.035.066-.054.096l-.033.054c-.416.744-1.207.984-2.157.625a62.125 62.125 0 0 1-1.676-.688c-.104-.043-.206-.089-.304-.133A15.434 15.434 0 0 0 14.37 12l.062.563a3.41 3.41 0 0 0-1.01-.162c-.64-.001-1.263.194-1.813.524A2.361 2.361 0 0 0 9.502 11.6c-.925 0-1.718.544-2.108 1.325a3.522 3.522 0 0 0-1.811-.525 3.4 3.4 0 0 0-.79.1c-.078.019-.156.037-.233.063l.074-.55c-.69.293-1.764.74-2.219.912-.992.377-1.858.083-2.243-.775-.42-.94-.062-1.792.986-2.338.45-.234 2.191-1.168 3.4-1.817l.667-.357A4.792 4.792 0 0 1 4.77 5.6c0-.44.063-.86.173-1.262a2.59 2.59 0 0 1-.801-.726c-.282-.389-.466-.882-.346-1.387.098-.408.258-.825.752-1.363.208-.226.467-.432.727-.587zm1.972 1.1A1.492 1.492 0 0 0 6.076.8c-.017 0-.213.047-.407.162-.194.116-.398.28-.542.438-.426.463-.48.64-.567 1.013-.048.203.033.478.221.737.114.16.269.31.432.425a4.822 4.822 0 0 1 2.033-2.2zM12.928.8c.017 0 .213.047.407.162.194.116.397.28.542.438.425.463.48.64.567 1.013.048.203-.034.478-.222.737a1.87 1.87 0 0 1-.431.425 4.823 4.823 0 0 0-2.034-2.2A1.492 1.492 0 0 1 12.928.8zm-4.215 3c0-.331-.265-.6-.592-.6a.596.596 0 0 0-.591.6c0 .331.265.6.591.6a.596.596 0 0 0 .592-.6zm2.17-.6c.326 0 .59.269.59.6 0 .331-.264.6-.59.6a.596.596 0 0 1-.592-.6c0-.331.264-.6.591-.6zm1.38 4c0-1.547-1.236-2.8-2.761-2.8-1.525 0-2.76 1.253-2.76 2.8S7.976 10 9.501 10c1.525 0 2.76-1.253 2.76-2.8zm-2.761-2c-.653 0-1.183.537-1.183 1.2 0 .662.53 1.2 1.183 1.2s1.183-.537 1.183-1.2c0-.663-.53-1.2-1.183-1.2zm-4.523 8.075a2.619 2.619 0 0 1 1.183-.013 2.786 2.786 0 0 1 .844.348c.014.01.028.019.043.027l.05.034.024.017c.119.078.225.167.333.262l.067.058c.053.045.106.09.155.142l.024.025c.054.058.11.125.16.188.045.054.083.11.123.17l.038.055c.05.071.094.146.139.222l.009.015.035.058c.03.05.061.101.088.155l.011.016c.005.007.01.013.014.021.023.046.045.097.066.146l.008.017.02.052.017.048c.026.065.047.133.067.202l.019.06c0 .002.003.004.006.006l.005.004.001.003.017.05c.025.078.05.155.07.237v.006.006c.024.11.046.218.061.325v.013c.03.22.043.447.037.663v.012c-.003.106-.012.21-.025.313v.012c-.012.103-.029.2-.049.3v.025a3.571 3.571 0 0 1-.08.3l-.002.004a.093.093 0 0 0-.004.008l-.022.077c-.02.068-.039.135-.064.199a2.384 2.384 0 0 1-.114.234 6.703 6.703 0 0 0-.034.066l-.028.053c-.034.067-.07.135-.108.197a.624.624 0 0 1-.04.053.74.74 0 0 0-.034.047l-.021.03-.077.107c-.004.004-.005.008-.007.012a.042.042 0 0 1-.006.013c-.045.056-.094.107-.144.158l-.04.042a3.181 3.181 0 0 1-.226.215l-.003.004a.042.042 0 0 1-.006.006 2.54 2.54 0 0 1-.48.313.034.034 0 0 0-.006.006.033.033 0 0 1-.007.006 1.221 1.221 0 0 1-.086.037c-.02.008-.041.016-.062.026a2.619 2.619 0 0 1-1.504.169l-.024-.007-.028-.005a1.412 1.412 0 0 1-.243-.069l-.074-.026-.038-.012c-.037-.012-.076-.024-.11-.038a.574.574 0 0 1-.055-.027.732.732 0 0 0-.044-.023l-.025-.01-.06-.027-.022-.01a1.807 1.807 0 0 1-.102-.053l-.037-.02a1.46 1.46 0 0 1-.099-.055l-.012-.012a.062.062 0 0 0-.012-.013 3.29 3.29 0 0 1-.617-.5l-.012-.012a3.761 3.761 0 0 1-.924-1.738 3.997 3.997 0 0 1-.074-1.338v-.012a3.8 3.8 0 0 1 .05-.3v-.013c-.001-.004-.002-.008 0-.012.008-.04.018-.08.028-.118l.008-.032c.011-.045.026-.09.04-.133l.01-.03.025-.086c.018-.064.035-.125.06-.189l.007-.006.006-.006c.035-.088.082-.18.123-.263v-.006-.006c.005-.01.012-.017.019-.025.007-.008.014-.016.018-.025l.032-.06a2.218 2.218 0 0 1 .252-.39c.003-.004.004-.008.006-.013a.031.031 0 0 1 .006-.012 2.916 2.916 0 0 1 .413-.419l.006-.006a2.538 2.538 0 0 1 .228-.169 2.24 2.24 0 0 1 .226-.13l.027-.013a.031.031 0 0 0 .006-.007l.006-.006a.853.853 0 0 1 .09-.039 2.493 2.493 0 0 1 .465-.161zm8.442-.075a2.339 2.339 0 0 0-.466.042.493.493 0 0 0-.082.014 2.786 2.786 0 0 0-.82.319l-.03.019a2.085 2.085 0 0 0-.236.165l-.054.041-.035.027a2.69 2.69 0 0 0-.138.11 3.606 3.606 0 0 0-.493.526c-.046.06-.092.121-.136.187-.244.37-.434.787-.542 1.25a3.759 3.759 0 0 0 .277 2.525c.002.004.004.009.007.012.232.461.565.85.973 1.125a2.655 2.655 0 0 0 .42.226l.045.02c.021.01.043.021.065.03.097.035.194.062.296.087a2.63 2.63 0 0 0 .924.056 1.807 1.807 0 0 0 .173-.025.248.248 0 0 1 .04-.01 4.793 4.793 0 0 1 .046-.009c.062-.014.125-.03.185-.05.02-.005.039-.013.057-.02.014-.007.028-.012.042-.017l.038-.012a1.517 1.517 0 0 0 .31-.133l.034-.017c.055-.029.106-.055.16-.088a3.27 3.27 0 0 0 .69-.55l.025-.025a3.614 3.614 0 0 0 .51-.698c.015-.025.03-.05.044-.077.155-.29.28-.613.358-.95a3.96 3.96 0 0 0 .061-.35l.002-.014c.015-.105.03-.206.035-.311v-.012c.007-.11.003-.22 0-.325v-.013a3.528 3.528 0 0 0-.024-.312v-.013c-.013-.1-.03-.203-.05-.3v-.013-.012a3.445 3.445 0 0 0-.08-.3l-.006-.012a3.636 3.636 0 0 1-.025-.087 1.828 1.828 0 0 0-.061-.189c0-.002-.004-.004-.006-.006-.003-.002-.006-.004-.006-.006a3.385 3.385 0 0 0-.124-.275.033.033 0 0 0-.006-.006.046.046 0 0 1-.004-.004l-.002-.002-.027-.053c-.035-.068-.068-.133-.109-.197a.03.03 0 0 0-.006-.007l-.003-.003a.018.018 0 0 1-.003-.003c-.01-.017-.023-.034-.035-.05l-.027-.038a1.803 1.803 0 0 1-.042-.063c-.021-.034-.043-.067-.068-.099a2.061 2.061 0 0 0-.144-.158l-.041-.042a2.777 2.777 0 0 0-.456-.388 2.667 2.667 0 0 0-.26-.15.03.03 0 0 1-.005-.006.03.03 0 0 0-.007-.006 2.554 2.554 0 0 0-.264-.112h-.007a2.628 2.628 0 0 0-.887-.163zm-4.388 5.575a4.3 4.3 0 0 0 .309-.787h.003c.106.001.21.003.317 0 .075.274.183.539.308.787l-.162.01a4.313 4.313 0 0 1-.306.015c-.102 0-.205-.007-.306-.015l-.163-.01z" clip-rule="evenodd"/></svg>