<svg xmlns="http://www.w3.org/2000/svg" width="22" height="18" fill="none"><path fill="#fff" d="M21.21 2.038c-.78.346-1.618.58-2.498.686A4.37 4.37 0 0 0 20.624.318a8.772 8.772 0 0 1-2.765 1.056 4.351 4.351 0 0 0-7.414 3.967A12.353 12.353 0 0 1 1.478.795a4.318 4.318 0 0 0-.589 2.187c0 1.51.769 2.842 1.935 3.621a4.351 4.351 0 0 1-1.97-.546v.054c0 2.108 1.5 3.866 3.49 4.267a4.406 4.406 0 0 1-1.147.152c-.281 0-.553-.028-.82-.08a4.353 4.353 0 0 0 4.064 3.021 8.73 8.73 0 0 1-5.403 1.86c-.351 0-.697-.021-1.038-.06a12.299 12.299 0 0 0 6.67 1.958c8.003 0 12.378-6.63 12.378-12.38l-.014-.563a8.688 8.688 0 0 0 2.176-2.248z"/></svg>