<svg xmlns="http://www.w3.org/2000/svg" width="19" height="20" fill="none"><path d="M11.787 13.857c-.073-.794-.044-1.348-.044-2.074.36-.188 1.004-1.39 1.112-2.406.283-.023.73-.299.86-1.387.07-.585-.21-.914-.381-1.018.46-1.383 1.416-5.664-1.766-6.106C11.238.29 10.4 0 9.31 0 4.95.08 4.425 3.294 5.381 6.972c-.171.104-.45.433-.381 1.018.133 1.088.577 1.364.86 1.387.108 1.015.777 2.218 1.139 2.406 0 .726.027 1.28-.046 2.074C6.09 16.177.269 15.525 0 20h18.715c-.27-4.475-6.066-3.823-6.928-6.143z"/></svg>