<svg xmlns="http://www.w3.org/2000/svg" width="65" height="21" fill="none"><path fill="#00579F" d="M28.42 21h-5.613l3.51-19.833h5.613L28.42 21zM47.895.865C46.845.455 45.18 0 43.12 0c-5.256 0-8.957 2.768-8.98 6.725-.043 2.92 2.65 4.542 4.665 5.515 2.06.995 2.76 1.644 2.76 2.531-.022 1.362-1.665 1.99-3.197 1.99-2.125 0-3.263-.324-4.994-1.081l-.7-.325-.745 4.563c1.248.562 3.548 1.06 5.935 1.082 5.585 0 9.22-2.725 9.263-6.942.022-2.315-1.4-4.088-4.467-5.537-1.861-.93-3.001-1.557-3.001-2.509.022-.865.964-1.751 3.065-1.751 1.73-.043 3.002.367 3.965.778l.48.216.725-4.39z"/><path fill="#00579F" fill-rule="evenodd" d="M56.965 1.167h3.933L65 21h-4.708s-.46-2.279-.607-2.975h-6.528L52.09 21h-5.336l7.553-18.188c.523-1.287 1.445-1.645 2.658-1.645zm-.314 7.258s-1.61 4.41-2.03 5.549h4.227c-.21-.992-1.172-5.74-1.172-5.74l-.356-1.708c-.15.44-.366 1.045-.512 1.453-.099.277-.165.463-.157.446z" clip-rule="evenodd"/><path fill="#00579F" d="M18.476 1.167L13.41 14.706l-.554-2.746C11.918 8.79 8.98 5.35 5.702 3.637L10.343 21h5.472l8.132-19.833h-5.47z"/><path fill="#FAA61A" d="M9.162 1.167H.092L0 1.557c7.074 1.603 11.76 5.466 13.684 10.11L11.713 2.79c-.325-1.233-1.322-1.583-2.551-1.623z"/></svg>