<svg xmlns="http://www.w3.org/2000/svg" width="24" height="14" fill="none"><path fill="#fff" d="M21.262 9.062c1.838 1.707 2.222 2.54 2.283 2.641.762 1.268-.844 1.364-.844 1.364l-3.07.045s-.661.131-1.53-.47c-1.15-.782-2.231-2.832-3.08-2.57-.853.273-.828 2.12-.828 2.12s.005.324-.187.536c-.212.222-.626.202-.626.202h-1.378s-3.035.253-5.706-2.53C3.382 7.366.812 1.382.812 1.382s-.146-.379.01-.57C1.004.599 1.5.589 1.5.589L4.786.574s.308.056.53.217c.182.132.288.384.288.384s.53 1.348 1.232 2.56c1.374 2.373 2.015 2.893 2.48 2.641.681-.374.474-3.353.474-3.353s.015-1.085-.343-1.57c-.273-.369-.788-.48-1.02-.51-.187-.025.12-.455.515-.646.59-.288 1.636-.308 2.868-.293.96.01 1.237.07 1.61.161 1.137.273.753 1.328.753 3.863 0 .813-.146 1.954.44 2.333.252.161.868.025 2.403-2.59.732-1.243 1.277-2.697 1.277-2.697s.121-.262.308-.374c.192-.11.45-.075.45-.075L22.51.599s1.035-.12 1.206.349c.177.49-.389 1.641-1.802 3.524-2.323 3.09-2.58 2.803-.652 4.59z"/></svg>