<svg xmlns="http://www.w3.org/2000/svg" width="106" height="25" fill="none"><path fill="#006CB4" fill-rule="evenodd" d="M93.603.002c1.926 0 3.758.439 5.401 1.225.258.116.517.255.774.394l-1.126.996L96.962.88 94.05 3.426l-1.714-1.828-5.354 4.745 3.428 3.725-1.338 1.156 3.381 3.726-1.338 1.157 4.838 5.3 2.862-2.593 2.49 2.778c-.493.37-1.033.741-1.62 1.064a12.397 12.397 0 0 1-6.058 1.573c-6.786 0-12.303-5.437-12.303-12.125C81.302 5.463 86.819 0 93.605 0l-.002.002zM91.35 11.363l2.63 2.892 2.936-2.59-2.63-2.895-2.935 2.593zm5.003 2.384l-2.913 2.615 2.629 2.87 2.936-2.592-2.652-2.893zm-7.09-7.313l2.933-2.591 2.63 2.892-2.935 2.593-2.629-2.894zm7.558-3.332l-2.183 1.944h-.001l1.972 2.175 2.185-1.967-1.973-2.152zm1.714 10.853l2.183-1.943 1.973 2.174-2.184 1.945-1.972-2.176zm4.109 2.43l-2.184 1.944 1.972 2.175 2.183-1.967-1.971-2.152zm-1.292-8.054l1.457-1.295 1.314 1.435-1.455 1.295-1.316-1.435zm-.421-5.6l-1.457 1.32 1.315 1.436 1.457-1.297-1.315-1.458zm2.277 9.883l1.455-1.296L106 12.752l-1.479 1.296-1.314-1.434zM98.84 7.453l-2.183 1.943 1.973 2.153 2.182-1.945-1.972-2.151zm-92.4.894h-.11L4.25 16.22h-1.7L0 5.035h1.764l1.763 8.346h.11l2.046-8.346h1.401l2.19 8.346h.11l1.607-8.346h1.842L10.28 16.22h-1.7L6.44 8.347zm12.235 3.111H15.07c.172-1.576.912-2.319 1.872-2.319.85 0 1.654.663 1.733 2.32zm1.26 2.967v1.2c-.71.41-1.653.726-2.788.726-2.646 0-3.73-1.642-3.73-4.134 0-2.399 1.212-4.134 3.573-4.134 1.967 0 3.18 1.277 3.18 3.849v.584h-5.133c0 1.893.77 2.73 2.393 2.73.852 0 1.639-.302 2.504-.822zm5.348.914c-.394 0-.946-.032-1.449-.253v-5.16c.63-.346 1.087-.52 1.717-.52 1.054 0 1.778.647 1.778 2.65 0 2.557-.88 3.283-2.046 3.283zm.692-7.164c-.85 0-1.652.333-2.125.585V4.264l-1.638.395v11.01c.945.505 2.236.775 3.07.775 2.283 0 3.701-1.437 3.701-4.387 0-2.525-1.055-3.882-3.008-3.882zm10.173 5.672h-.078l-3.526-8.82h-1.907v11.187h1.417v-7.92h.143l3.212 7.92h1.006l3.212-8.11h.141v8.11h1.7V5.027h-1.951l-3.369 8.82zm12.269-1.63c0-2.129-.865-3.028-1.935-3.028-1.038 0-1.937.898-1.937 3.028 0 2.162.82 3.028 1.937 3.028s1.936-.866 1.936-3.029h-.001zm-1.934-4.135c-2.078 0-3.59 1.373-3.59 4.134h.001c0 2.696 1.432 4.133 3.59 4.133 2.157 0 3.59-1.437 3.59-4.134 0-2.761-1.511-4.133-3.591-4.133zm4.835 1.169c.709-.426 2.205-1.168 4.014-1.168 1.89 0 2.597.74 2.597 2.365v5.713h-1.636v-5.348c0-1.247-.612-1.467-1.417-1.467-.63 0-1.434.284-1.922.568v6.248h-1.636V9.25zM65 11.458h-3.604c.172-1.576.912-2.319 1.873-2.319.85 0 1.655.663 1.731 2.32zm1.26 2.967v1.2a5.537 5.537 0 0 1-2.788.726c-2.642 0-3.73-1.642-3.73-4.134 0-2.399 1.212-4.134 3.574-4.134 1.967 0 3.181 1.277 3.181 3.849v.584h-5.132c0 1.893.77 2.73 2.391 2.73.85 0 1.64-.302 2.503-.822zm8.463-6.341h-1.685v-.001l-1.794 5.805h-.094l-2.017-5.804h-1.73l3.022 7.886c-.379 1.17-1.04 2.02-2.11 2.02v1.292c1.811 0 2.77-1.136 3.558-3.314l2.85-7.884z" clip-rule="evenodd"/></svg>