<svg xmlns="http://www.w3.org/2000/svg" width="100" height="20" fill="none"><path fill="red" fill-rule="evenodd" d="M1.908 16.292l2.616-6.243H5.9v6.243h1.647V0H5.082C2.659 0 .622 1.71.622 5.13c0 2.435.9 3.756 2.251 4.486L0 16.292h1.908zM5.018 1.48H5.9v7.11h-.883c-1.441 0-2.616-.842-2.616-3.463 0-2.712 1.286-3.647 2.616-3.647z" clip-rule="evenodd"/><path fill-rule="evenodd" d="M45.88 4.794c-2.66 0-4.037 2.37-4.037 6.104h.002c0 4.052 1.467 6.101 3.901 6.111a3.353 3.353 0 0 0 2.367-.896l-.406-1.375a2.8 2.8 0 0 1-1.916.73c-1.425 0-2.098-1.672-2.098-4.665 0-2.992.9-4.478 2.164-4.478.72 0 1.397.4 1.87.825l.249-1.743a3.458 3.458 0 0 0-2.096-.613zM30.377 17c-2.344 0-3.786-1.955-3.786-5.606 0-3.818 1.015-6.599 3.427-6.599 1.893 0 3.132 1.484 3.132 5.514v1.012h-4.74c0 2.687.723 4.101 2.12 4.101a3.827 3.827 0 0 0 2.23-.801l.407 1.412c-.8.644-1.786.984-2.796.967h.006zM16.485 4.96v11.875H14.75V11.51h-2.615v5.325h-1.758V4.96h1.758v5.05h2.615V4.96h1.735zm9.04 14.208h-1.578v-2.333h-4.869v2.333h-1.577v-3.84h.7c1.035-2.521 1.148-6.198 1.148-9.354V4.96h5.277v10.368h.9l-.001 3.84zM20.926 6.443h1.967l-.006 8.884h-3.02c.946-2.521 1.06-6.174 1.06-8.672v-.212zm10.416 3.37h-2.909c.113-2.12.496-3.512 1.58-3.512 1.013 0 1.328 1.486 1.328 3.512zm5.363 1.106v5.915h-1.758V4.96h1.76v5.49l2.726-5.49h1.782l-2.82 5.585 3.223 6.288h-1.914l-2.999-5.913zM52.979 16.432h7.26l.158 2.735h.924V15.49h-1.15V0h-5.936c-.07 4.573-.142 8.205-.38 10.641-.237 2.344-.639 4.182-1.47 4.85h-.498v3.676h.926l.166-2.735zM55.304.943h3.676v14.548h-5.29c.64-.76 1.02-2.393 1.234-4.85.182-2.369.309-5.539.38-9.698zM68.445 14.991a3.067 3.067 0 0 1-2.435 1.283c-1.742 0-2.6-1.785-2.65-5.062h5.443c.382-4.257-.954-6.42-3.03-6.42-2.03 0-3.509 2.308-3.509 6.23 0 3.922 1.17 6.228 3.722 6.228a3.476 3.476 0 0 0 2.817-1.357l-.358-.902zm-.691-4.665h-4.37c.096-2.988 1.123-4.604 2.39-4.612 1.216 0 2.179 1.425 1.98 4.612z" clip-rule="evenodd"/><path d="M75.414 10.746h-3.659v5.546h-1v-11.5h1v5.08h3.66v-5.08h1v11.5h-1v-5.546z"/><path fill-rule="evenodd" d="M80.344 4.792h-1.099v11.5h1.895c2.222 0 3.766-1.209 3.766-3.65 0-2.396-1.45-3.584-3.696-3.584h-.866V4.792zm0 10.655V9.903h.814c1.691 0 2.667.822 2.667 2.762 0 1.984-1.124 2.782-2.785 2.782h-.696z" clip-rule="evenodd"/><path d="M87.812 5.686v10.606h-1.02v-11.5h4.718v.894h-3.698zM98.918 8.284c0-.594.048-1.096.097-1.576h-.075a9.84 9.84 0 0 1-.648 1.483l-3.936 8.1h-.96v-11.5h1.056v7.993c0 .615-.048 1.117-.096 1.62h.072c.18-.52.397-1.03.649-1.522l3.938-8.09H100v11.5h-1.082V8.284z"/></svg>